<svg width="43" height="43" viewBox="0 0 43 43" fill="none" xmlns="http://www.w3.org/2000/svg">
<path d="M17.7065 19.56C17.4262 19.2798 16.9733 19.2798 16.6931 19.56C16.4128 19.8403 16.4128 20.2932 16.6931 20.5734L19.0531 22.9333L18.8431 23.1433C18.5628 23.4235 18.5628 23.8765 18.8431 24.1567C18.9828 24.2964 19.1663 24.3666 19.3498 24.3666C19.5333 24.3666 19.7167 24.2964 19.8564 24.1567L20.0664 23.9467L22.4264 26.3067C22.5661 26.4464 22.7496 26.5166 22.933 26.5166C23.1165 26.5166 23.3 26.4464 23.4397 26.3067C23.72 26.0264 23.72 25.5735 23.4397 25.2933L17.7065 19.56Z" fill="white" stroke="white" stroke-width="0.390623"/>
<path d="M14.84 21.71C14.5096 21.3796 14.0753 21.1976 13.6167 21.1976C13.158 21.1976 12.7237 21.3796 12.3934 21.71L10.2434 23.86C9.51161 24.5918 9.51161 25.575 10.2434 26.3067L12.9617 29.025L7.81102 34.1749C7.26924 33.6338 6.32467 33.6338 5.78432 34.1749L0.420004 39.5392C0.149072 39.8101 0 40.1699 0 40.5533C0 40.936 0.149072 41.2958 0.420004 41.5666L1.43336 42.58C1.70429 42.8509 2.06399 42.9999 2.44671 42.9999C2.83009 42.9999 3.18988 42.8508 3.46006 42.58L8.82429 37.2157C9.09522 36.9456 9.24429 36.5851 9.24429 36.2024C9.24429 35.819 9.09522 35.4592 8.82429 35.189L13.9749 30.0384L16.6933 32.7567C17.1584 33.2218 17.6156 33.3193 17.9166 33.3193C18.2176 33.3193 18.6748 33.2218 19.1399 32.7567L21.2899 30.6067C22.0667 29.8291 22.0667 28.9368 21.2899 28.16L14.84 21.71ZM2.44671 41.5666H2.44746L2.44671 42.2833V41.5666L1.43336 40.5533L6.79759 35.189L7.81094 36.2024L2.44671 41.5666ZM20.2766 29.5933L18.1266 31.7433C18.0091 31.8609 17.9353 31.8859 17.9167 31.8859C17.898 31.8859 17.8242 31.8608 17.7067 31.7433L11.2567 25.2934C11.084 25.1206 11.084 25.0461 11.2567 24.8734L13.4067 22.7235C13.4827 22.6474 13.5629 22.631 13.6167 22.631C13.6704 22.631 13.75 22.6474 13.8266 22.7235L20.2766 29.1734C20.4099 29.3075 20.4336 29.3791 20.4364 29.3791C20.4335 29.3884 20.4099 29.4593 20.2766 29.5933Z" fill="white"/>
<path d="M2.44671 41.5666H2.44746L2.44671 42.2833V41.5666ZM2.44671 41.5666L1.43336 40.5533L6.79759 35.189L7.81094 36.2024L2.44671 41.5666ZM14.84 21.71C14.5096 21.3796 14.0753 21.1976 13.6167 21.1976C13.158 21.1976 12.7237 21.3796 12.3934 21.71L10.2434 23.86C9.51161 24.5918 9.51161 25.575 10.2434 26.3067L12.9617 29.025L7.81102 34.1749C7.26924 33.6338 6.32467 33.6338 5.78432 34.1749L0.420004 39.5392C0.149072 39.8101 0 40.1699 0 40.5533C0 40.936 0.149072 41.2958 0.420004 41.5666L1.43336 42.58C1.70429 42.8509 2.06399 42.9999 2.44671 42.9999C2.83009 42.9999 3.18988 42.8508 3.46006 42.58L8.82429 37.2157C9.09522 36.9456 9.24429 36.5851 9.24429 36.2024C9.24429 35.819 9.09522 35.4592 8.82429 35.189L13.9749 30.0384L16.6933 32.7567C17.1584 33.2218 17.6156 33.3193 17.9166 33.3193C18.2176 33.3193 18.6748 33.2218 19.1399 32.7567L21.2899 30.6067C22.0667 29.8291 22.0667 28.9368 21.2899 28.16L14.84 21.71ZM20.2766 29.5933L18.1266 31.7433C18.0091 31.8609 17.9353 31.8859 17.9167 31.8859C17.898 31.8859 17.8242 31.8608 17.7067 31.7433L11.2567 25.2934C11.084 25.1206 11.084 25.0461 11.2567 24.8734L13.4067 22.7235C13.4827 22.6474 13.5629 22.631 13.6167 22.631C13.6704 22.631 13.75 22.6474 13.8266 22.7235L20.2766 29.1734C20.4099 29.3075 20.4336 29.3791 20.4364 29.3791C20.4335 29.3884 20.4099 29.4593 20.2766 29.5933Z" stroke="white" stroke-width="0.390623"/>
<path d="M35.8334 3.5835C33.8575 3.5835 32.25 5.19095 32.25 7.16676C32.25 7.89633 32.4715 8.57282 32.847 9.13971L32.0866 9.89935C31.8071 10.1796 31.8071 10.6332 32.0866 10.9135C32.227 11.0532 32.4105 11.1227 32.5933 11.1227C32.7768 11.1227 32.9602 11.0532 33.0999 10.9135L33.8603 10.1531C34.4265 10.5286 35.1037 10.75 35.8333 10.75C37.8091 10.75 39.4166 9.14257 39.4166 7.16668C39.4166 5.19095 37.8092 3.5835 35.8334 3.5835ZM35.8334 9.31675C34.648 9.31675 33.6834 8.35211 33.6834 7.16676C33.6834 5.98141 34.648 5.01677 35.8334 5.01677C37.0187 5.01677 37.9834 5.98141 37.9834 7.16676C37.9834 8.35211 37.0187 9.31675 35.8334 9.31675Z" fill="white" stroke="white" stroke-width="0.390623"/>
<path d="M42.79 0.210128C42.5098 -0.0700427 42.0568 -0.0700427 41.7766 0.210128L38.9099 3.07684C38.6296 3.35709 38.6296 3.81002 38.9099 4.09019C39.0496 4.22994 39.2332 4.30015 39.4166 4.30015C39.6001 4.30015 39.7835 4.22994 39.9233 4.09019L42.79 1.22356C43.0701 0.943309 43.0701 0.490383 42.79 0.210128Z" fill="white" stroke="white" stroke-width="0.390623"/>
<path d="M19.8568 17.41C19.5766 17.1298 19.1236 17.1298 18.8435 17.41C18.5633 17.6903 18.5632 18.1432 18.8435 18.4234L21.2034 20.7833L20.9935 20.9933C20.7133 21.2735 20.7133 21.7265 20.9935 22.0066C21.1332 22.1464 21.3167 22.2166 21.5001 22.2166C21.6836 22.2166 21.8671 22.1464 22.0068 22.0066L22.2168 21.7967L24.5767 24.1566C24.7165 24.2964 24.9 24.3666 25.0834 24.3666C25.2669 24.3666 25.4503 24.2964 25.5901 24.1566C25.8702 23.8764 25.8702 23.4234 25.5901 23.1433L19.8568 17.41Z" fill="white" stroke="white" stroke-width="0.390623"/>
<path d="M25.5898 10.9601C25.2594 10.6297 24.8251 10.4478 24.3665 10.4478C23.9078 10.4478 23.4735 10.6297 23.1431 10.9601L20.9932 13.1101C20.2614 13.8419 20.2614 14.8251 20.9932 15.5568L23.7115 18.2752L23.1431 18.8435C22.8629 19.1237 22.8629 19.5767 23.1431 19.8568C23.2829 19.9966 23.4664 20.0668 23.6498 20.0668C23.8333 20.0668 24.0167 19.9966 24.1565 19.8568L24.7248 19.2885L27.4431 22.0068C27.9076 22.4719 28.3648 22.5694 28.6664 22.5694C28.9682 22.5694 29.4254 22.4719 29.8897 22.0068L32.0397 19.8568C32.8173 19.0792 32.8173 18.187 32.0397 17.4101L25.5898 10.9601ZM31.0264 18.8435L28.8764 20.9935C28.7596 21.111 28.6851 21.1361 28.6664 21.1361C28.6478 21.1361 28.5733 21.111 28.4565 20.9935L22.0065 14.5435C21.8337 14.3707 21.8337 14.2962 22.0065 14.1236L24.1565 11.9736C24.2324 11.8976 24.3127 11.8811 24.3665 11.8811C24.4202 11.8811 24.4997 11.8976 24.5764 11.9736L31.0264 18.4236C31.1597 18.5576 31.1834 18.6292 31.1862 18.6292C31.1833 18.6385 31.1597 18.7094 31.0264 18.8435Z" fill="white" stroke="white" stroke-width="0.390623"/>
<path d="M28.4565 8.81004C28.1763 8.52979 27.7233 8.52979 27.4431 8.81004C27.1628 9.0903 27.1628 9.54323 27.4431 9.8234L29.8031 12.1833L29.5931 12.3933C29.3128 12.6736 29.3128 13.1265 29.5931 13.4067C29.7328 13.5464 29.9163 13.6166 30.0998 13.6166C30.2833 13.6166 30.4667 13.5464 30.6064 13.4067L30.8164 13.1967L33.1764 15.5567C33.3161 15.6964 33.4996 15.7666 33.683 15.7666C33.8665 15.7666 34.05 15.6964 34.1897 15.5567C34.47 15.2764 34.47 14.8235 34.1897 14.5433L28.4565 8.81004Z" fill="white" stroke="white" stroke-width="0.390623"/>
</svg>
