<svg width="68" height="57" viewBox="0 0 68 57" fill="none" xmlns="http://www.w3.org/2000/svg">
<path d="M21.3387 51.2427L29.4599 41.3954L33.1749 46.1335L26.0145 55.2387C23.2723 58.723 18.1979 55.0512 21.3387 51.2427ZM30.8233 28.8176C31.5967 26.2942 31.2412 24.138 28.3349 20.935L21.2332 12.3923C20.2253 11.2087 17.8503 12.9469 18.8425 14.3805L24.5223 21.3764C25.5966 22.681 23.6004 24.4076 22.491 23.0638L16.6159 15.8297C15.5221 14.5758 13.2603 16.232 14.4049 17.6656C16.0612 19.6577 18.6237 22.9115 20.28 24.9036C21.4285 26.0716 19.6824 27.802 18.5495 26.345L12.7173 19.1577C11.8619 18.228 10.4634 18.8061 10.0923 19.8921C9.69383 21.0522 10.6743 21.8998 11.3423 22.7592L17.8503 31.1652C19.8699 33.505 22.1277 34.8916 24.7528 34.1065C25.1552 33.9854 25.6474 33.7393 26.1747 33.4151L43.6595 55.9848C44.6009 57.1996 46.4174 57.3285 47.5971 56.3481L47.8667 56.1254C49.1948 55.02 49.4097 53.0005 48.2729 51.6959L29.7568 30.423C30.2959 29.8215 30.6904 29.2512 30.8233 28.8176ZM35.7726 33.7393L38.6516 30.2472C34.9484 21.0678 48.6714 8.83377 55.3239 14.4586C63.4061 21.2983 51.3941 37.7822 42.9525 33.7081L39.5422 38.04L35.7726 33.7393Z" fill="white"/>
<path d="M21.0549 0L65.3739 1.95556L68 9.58203L24.2851 4.90781C22.9983 4.77021 21.7082 5.13693 20.6862 5.93084L0 22V18L21.0549 0Z" fill="white"/>
</svg>
