<svg width="52" height="50" viewBox="0 0 52 50" fill="none" xmlns="http://www.w3.org/2000/svg">
<path d="M26 1C24.4297 1 23.2344 2 22.5625 3.3125C17.4805 3.98828 12.0938 6.21875 7.90625 9.53125C7.83203 9.51562 7.76562 9.47656 7.6875 9.46875C7.27344 9.42969 6.87109 9.49219 6.5 9.625C5.75781 9.88672 5.08594 10.4141 4.46875 11.0938C3.85156 11.7734 3.37891 12.4883 3.1875 13.25C3.07812 13.6914 3.08594 14.1875 3.21875 14.6562C1.87109 16.8125 1 19.3359 1 22C1 23.6211 1.39844 25.0586 2.1875 26.1562C2.97656 27.2539 4.21094 28 5.59375 28H5.90625L13.25 48.4375C13.3945 48.832 13.7695 49.0938 14.1875 49.0938H19.6875C19.9102 49.1758 20.1523 49.1758 20.375 49.0938H31.6562C31.8789 49.1758 32.1211 49.1758 32.3438 49.0938H37.8125C38.2305 49.0938 38.6055 48.832 38.75 48.4375L46.125 28C47.6289 27.9688 48.9414 27.4062 49.7812 26.3438C50.6445 25.25 51 23.7812 51 22C51 16.7617 46.8164 11.7227 41.3438 8.125C41.2734 7.80078 41.168 7.49219 41 7.21875C40.5898 6.54688 39.9492 5.96484 39.1562 5.5C38.3633 5.03516 37.5352 4.78125 36.75 4.75C36.2852 4.73438 35.7969 4.83203 35.375 5.0625C33.4141 4.30078 31.4141 3.69531 29.4375 3.3125C28.7656 2 27.5703 1 26 1ZM26 3C26.9727 3 27.6523 3.57031 27.9375 4.5C28.0469 4.85547 28.3516 5.12109 28.7188 5.1875C30.5625 5.52344 32.4922 6.09766 34.375 6.8125C34.3945 7.28125 34.5508 7.74609 34.7812 8.125C35.1914 8.79688 35.8633 9.34766 36.6562 9.8125C37.4492 10.2773 38.2148 10.5625 39 10.5938C39.5664 10.6133 40.1758 10.4688 40.6562 10.0938C45.5508 13.4453 49 17.9883 49 22C49 23.5195 48.6797 24.543 48.2188 25.125C47.7578 25.707 47.1406 26 46 26H45.8125C45.6836 25.9531 45.543 25.9297 45.4062 25.9375C45.3086 25.9453 45.2148 25.9648 45.125 26H5.59375C4.87891 26 4.30078 25.6758 3.8125 25C3.32422 24.3242 3 23.2773 3 22C3 19.9023 3.63672 17.8359 4.6875 16.0312C5.14844 16.1133 5.63281 16.0586 6.0625 15.9062C6.80469 15.6445 7.53906 15.1172 8.15625 14.4375C8.77344 13.7578 9.18359 13.043 9.375 12.2812C9.48438 11.8398 9.5 11.3359 9.375 10.875C13.332 7.83203 18.5352 5.72656 23.2188 5.1875C23.6094 5.14453 23.9414 4.875 24.0625 4.5C24.3477 3.57031 25.0273 3 26 3ZM36.5312 6.78125C36.582 6.78125 36.5977 6.77734 36.6875 6.78125C37.0508 6.79297 37.6133 6.90234 38.1562 7.21875C38.6992 7.53516 39.0898 7.97266 39.2812 8.28125C39.375 8.4375 39.3945 8.52344 39.4062 8.5625C39.3555 8.57812 39.2578 8.60156 39.0938 8.59375C38.7305 8.58203 38.1992 8.41016 37.6562 8.09375C37.1133 7.77734 36.7227 7.37109 36.5312 7.0625C36.4805 6.98047 36.4648 6.95312 36.4375 6.90625C36.4727 6.86719 36.5039 6.82422 36.5312 6.78125ZM18 9C17.5156 9.01172 17.0273 9.12109 16.5938 9.40625C15.7305 9.97266 15.3242 10.9883 15.3125 11.9688C15.3008 12.9492 15.6328 13.9688 16.25 14.9062C16.8672 15.8438 17.6602 16.5625 18.5625 16.9375C19.4648 17.3125 20.5742 17.3477 21.4375 16.7812C22.3008 16.2148 22.6758 15.2305 22.6875 14.25C22.6992 13.2695 22.3672 12.25 21.75 11.3125C21.1328 10.375 20.3086 9.65625 19.4062 9.28125C18.9531 9.09375 18.4844 8.98828 18 9ZM17.8438 11C18.0312 10.9492 18.3047 10.9805 18.6562 11.125C19.125 11.3203 19.6797 11.7734 20.0938 12.4062C20.5078 13.0391 20.6953 13.7109 20.6875 14.2188C20.6797 14.7266 20.5391 14.9961 20.3438 15.125C20.1484 15.2539 19.8125 15.2891 19.3438 15.0938C18.875 14.8984 18.3203 14.4453 17.9062 13.8125C17.4922 13.1797 17.3047 12.5078 17.3125 12C17.3203 11.4922 17.4922 11.2227 17.6875 11.0938C17.7383 11.0625 17.7812 11.0156 17.8438 11ZM7.1875 11.5312C7.26172 11.6055 7.34375 11.668 7.4375 11.7188C7.43359 11.7344 7.44141 11.7344 7.4375 11.75C7.34766 12.1016 7.10938 12.6289 6.6875 13.0938C6.26562 13.5586 5.75 13.8789 5.40625 14C5.25 14.0547 5.17188 14.0586 5.125 14.0625C5.11328 14.0508 5.10547 14.043 5.09375 14.0312C5.08984 13.9805 5.08984 13.9219 5.125 13.7812C5.21484 13.4297 5.51562 12.9023 5.9375 12.4375C6.35938 11.9727 6.84375 11.6523 7.1875 11.5312ZM38.9062 14.9062C37.9844 14.9062 37.1953 15.4531 36.7188 16.1562C36.2422 16.8594 36 17.7305 36 18.6875C36 19.6445 36.2422 20.5469 36.7188 21.25C37.1953 21.9531 37.9844 22.5 38.9062 22.5C39.8281 22.5 40.5859 21.9531 41.0625 21.25C41.5391 20.5469 41.8125 19.6445 41.8125 18.6875C41.8125 17.7305 41.5391 16.8594 41.0625 16.1562C40.5859 15.4531 39.8281 14.9062 38.9062 14.9062ZM38.9062 16.9062C39.0312 16.9062 39.1953 16.9688 39.4062 17.2812C39.6172 17.5938 39.8125 18.0977 39.8125 18.6875C39.8125 19.2773 39.6172 19.8125 39.4062 20.125C39.1953 20.4375 39.0312 20.5 38.9062 20.5C38.7812 20.5 38.5859 20.4375 38.375 20.125C38.1641 19.8125 38 19.2773 38 18.6875C38 18.0977 38.1641 17.5938 38.375 17.2812C38.5859 16.9688 38.7812 16.9062 38.9062 16.9062ZM8.03125 28H43.9688L37.0938 47.0938H33.1875L35.9688 33.1875C36.0391 32.8555 35.9375 32.5117 35.6992 32.2695C35.457 32.0313 35.1133 31.9297 34.7812 32C34.3906 32.0938 34.0938 32.4141 34.0312 32.8125L31.1875 47.0938H27V33C27.0117 32.7109 26.8945 32.4336 26.6875 32.2383C26.4766 32.0391 26.1914 31.9414 25.9062 31.9688C25.8633 31.9766 25.8203 31.9883 25.7812 32C25.3164 32.1055 24.9883 32.5234 25 33V47.0938H20.8125L17.9688 32.8125C17.9219 32.5469 17.7695 32.3086 17.5469 32.1523C17.3242 32 17.0469 31.9453 16.7812 32C16.25 32.125 15.9141 32.6523 16.0312 33.1875L18.8125 47.0938H14.9062L8.03125 28Z" fill="white" stroke="white" stroke-width="0.1"/>
</svg>
