<svg width="94" height="59" viewBox="0 0 94 59" fill="none" xmlns="http://www.w3.org/2000/svg">
<path d="M93.5 15.3664C93.5 11.1689 92.6191 7.01805 90.9143 3.18228L89.5 0V26.5C89.5 28.1569 88.1569 29.5 86.5 29.5H72C70.3431 29.5 69 30.8431 69 32.5V47.782C69 48.0257 69.3532 48.0575 69.3968 47.8177L71.5521 35.9633C71.8115 34.5369 73.0539 33.5 74.5037 33.5H87.1404C88.525 33.5 89.7297 34.4476 90.0559 35.7932L93.1056 48.3732C93.1614 48.6033 93.5 48.5628 93.5 48.3261V33.5V15.3664Z" fill="#2A4064"/>
<path d="M0 15.3664C0 11.1689 0.880867 7.01805 2.58565 3.18228L4 0V26.5C4 28.1569 5.34315 29.5 7 29.5H21.5C23.1569 29.5 24.5 30.8431 24.5 32.5V47.782C24.5 48.0257 24.1468 48.0575 24.1032 47.8177L21.9479 35.9633C21.6885 34.5369 20.4461 33.5 18.9963 33.5H6.35962C4.97503 33.5 3.77028 34.4476 3.44407 35.7932L0.39437 48.3732C0.338603 48.6033 0 48.5628 0 48.3261V33.5V15.3664Z" fill="#2A4064"/>
<path d="M86.5 21.5H7V22.5C7 24.1569 8.34315 25.5 10 25.5H32.08C33.1528 25.5 34.0346 26.3465 34.0783 27.4184L34.8999 47.548C34.9099 47.7936 35.2684 47.8081 35.2983 47.5641L37.6773 28.1354C37.8615 26.6308 39.1392 25.5 40.6551 25.5H52.9501C54.4204 25.5 55.674 26.5655 55.9109 28.0166L59.1026 47.566C59.1422 47.8087 59.5 47.7797 59.5 47.5338V27.5C59.5 26.3954 60.3954 25.5 61.5 25.5H83.5C85.1569 25.5 86.5 24.1569 86.5 22.5V21.5Z" fill="black"/>
<path d="M49.9077 18.1193C49.294 18.1193 48.7486 18.0142 48.2713 17.804C47.7969 17.5937 47.4219 17.3011 47.1463 16.9261C46.8707 16.5511 46.7244 16.1179 46.7074 15.6264H48.3097C48.3239 15.8622 48.402 16.0682 48.544 16.2443C48.6861 16.4176 48.875 16.5526 49.1108 16.6491C49.3466 16.7457 49.6108 16.794 49.9034 16.794C50.2159 16.794 50.4929 16.7401 50.7344 16.6321C50.9759 16.5213 51.1648 16.3679 51.3011 16.1719C51.4375 15.9759 51.5043 15.75 51.5014 15.4943C51.5043 15.2301 51.4361 14.9972 51.2969 14.7955C51.1577 14.5937 50.956 14.4361 50.6918 14.3224C50.4304 14.2088 50.1151 14.152 49.7457 14.152H48.9744V12.9332H49.7457C50.0497 12.9332 50.3153 12.8807 50.5426 12.7756C50.7727 12.6705 50.9531 12.5227 51.0838 12.3324C51.2145 12.1392 51.2784 11.9162 51.2756 11.6634C51.2784 11.4162 51.223 11.2017 51.1094 11.0199C50.9986 10.8352 50.8409 10.6918 50.6364 10.5895C50.4347 10.4872 50.1974 10.4361 49.9247 10.4361C49.6577 10.4361 49.4105 10.4844 49.1832 10.581C48.956 10.6776 48.7727 10.8153 48.6335 10.9943C48.4943 11.1705 48.4205 11.3807 48.4119 11.625H46.8906C46.902 11.1364 47.0426 10.7074 47.3125 10.3381C47.5852 9.96591 47.9489 9.67614 48.4034 9.46875C48.858 9.25852 49.3679 9.15341 49.9332 9.15341C50.5156 9.15341 51.0213 9.26278 51.4503 9.48153C51.8821 9.69744 52.2159 9.98864 52.4517 10.3551C52.6875 10.7216 52.8054 11.1264 52.8054 11.5696C52.8082 12.0611 52.6634 12.473 52.3707 12.8054C52.081 13.1378 51.7003 13.3551 51.2287 13.4574V13.5256C51.8423 13.6108 52.3125 13.8381 52.6392 14.2074C52.9688 14.5739 53.1321 15.0298 53.1293 15.5753C53.1293 16.0639 52.9901 16.5014 52.7116 16.8878C52.4361 17.2713 52.0554 17.5724 51.5696 17.7912C51.0866 18.0099 50.5327 18.1193 49.9077 18.1193Z" fill="black"/>
<path d="M26.3523 51.9375V51.1818H30.8551V51.9375H29.0398V57H28.1648V51.9375H26.3523ZM32.4581 57.0966C32.1816 57.0966 31.9316 57.0455 31.7081 56.9432C31.4846 56.839 31.3075 56.6884 31.1768 56.4915C31.0481 56.2945 30.9837 56.053 30.9837 55.767C30.9837 55.5208 31.031 55.3182 31.1257 55.1591C31.2204 55 31.3482 54.8741 31.5092 54.7812C31.6702 54.6884 31.8501 54.6184 32.049 54.571C32.2479 54.5237 32.4505 54.4877 32.657 54.4631C32.9183 54.4328 33.1304 54.4081 33.2933 54.3892C33.4562 54.3684 33.5746 54.3352 33.6484 54.2898C33.7223 54.2443 33.7592 54.1705 33.7592 54.0682V54.0483C33.7592 53.8002 33.6892 53.608 33.549 53.4716C33.4107 53.3352 33.2043 53.267 32.9297 53.267C32.6437 53.267 32.4183 53.3305 32.2536 53.4574C32.0907 53.5824 31.978 53.7216 31.9155 53.875L31.1172 53.6932C31.2119 53.428 31.3501 53.214 31.532 53.0511C31.7157 52.8864 31.9268 52.767 32.1655 52.6932C32.4041 52.6174 32.6551 52.5795 32.9183 52.5795C33.0926 52.5795 33.2772 52.6004 33.4723 52.642C33.6693 52.6818 33.853 52.7557 34.0234 52.8636C34.1958 52.9716 34.3369 53.1259 34.4467 53.3267C34.5566 53.5256 34.6115 53.7841 34.6115 54.1023V57H33.782V56.4034H33.7479C33.6929 56.5133 33.6106 56.6212 33.5007 56.7273C33.3909 56.8333 33.2498 56.9214 33.0774 56.9915C32.9051 57.0616 32.6986 57.0966 32.4581 57.0966ZM32.6428 56.4148C32.8776 56.4148 33.0784 56.3684 33.245 56.2756C33.4136 56.1828 33.5414 56.0616 33.6286 55.9119C33.7176 55.7604 33.7621 55.5985 33.7621 55.4261V54.8636C33.7318 54.8939 33.6731 54.9223 33.5859 54.9489C33.5007 54.9735 33.4032 54.9953 33.2933 55.0142C33.1835 55.0312 33.0765 55.0473 32.9723 55.0625C32.8681 55.0758 32.781 55.0871 32.7109 55.0966C32.5462 55.1174 32.3956 55.1525 32.2592 55.2017C32.1248 55.2509 32.0168 55.322 31.9354 55.4148C31.8558 55.5057 31.8161 55.6269 31.8161 55.7784C31.8161 55.9886 31.8937 56.1477 32.049 56.2557C32.2043 56.3617 32.4022 56.4148 32.6428 56.4148ZM35.8111 57V51.1818H36.6605V53.3438H36.7116C36.7609 53.2528 36.8319 53.1477 36.9247 53.0284C37.0175 52.9091 37.1463 52.8049 37.3111 52.7159C37.4759 52.625 37.6937 52.5795 37.9645 52.5795C38.3168 52.5795 38.6312 52.6686 38.9077 52.8466C39.1842 53.0246 39.401 53.2812 39.5582 53.6165C39.7173 53.9517 39.7969 54.3551 39.7969 54.8267C39.7969 55.2983 39.7183 55.7027 39.5611 56.0398C39.4039 56.375 39.188 56.6335 38.9134 56.8153C38.6387 56.9953 38.3253 57.0852 37.973 57.0852C37.7079 57.0852 37.491 57.0407 37.3224 56.9517C37.1558 56.8627 37.0251 56.7585 36.9304 56.6392C36.8357 56.5199 36.7628 56.4138 36.7116 56.321H36.6406V57H35.8111ZM36.6435 54.8182C36.6435 55.125 36.688 55.3939 36.777 55.625C36.866 55.8561 36.9948 56.0369 37.1634 56.1676C37.3319 56.2964 37.5384 56.3608 37.7827 56.3608C38.0365 56.3608 38.2486 56.2936 38.419 56.1591C38.5895 56.0227 38.7183 55.8381 38.8054 55.6051C38.8944 55.3722 38.9389 55.1098 38.9389 54.8182C38.9389 54.5303 38.8954 54.2718 38.8082 54.0426C38.723 53.8134 38.5942 53.6326 38.4219 53.5C38.2514 53.3674 38.0384 53.3011 37.7827 53.3011C37.5365 53.3011 37.3281 53.3646 37.1577 53.4915C36.9891 53.6184 36.8613 53.7955 36.7741 54.0227C36.687 54.25 36.6435 54.5152 36.6435 54.8182ZM41.6001 51.1818V57H40.7507V51.1818H41.6001ZM44.6236 57.0881C44.1937 57.0881 43.8234 56.9962 43.5128 56.8125C43.2041 56.6269 42.9654 56.3665 42.7969 56.0312C42.6302 55.6941 42.5469 55.2992 42.5469 54.8466C42.5469 54.3996 42.6302 54.0057 42.7969 53.6648C42.9654 53.3239 43.2003 53.0578 43.5014 52.8665C43.8045 52.6752 44.1586 52.5795 44.5639 52.5795C44.8101 52.5795 45.0488 52.6203 45.2798 52.7017C45.5109 52.7831 45.7183 52.911 45.902 53.0852C46.0857 53.2595 46.2306 53.4858 46.3366 53.7642C46.4427 54.0407 46.4957 54.3769 46.4957 54.7727V55.0739H43.027V54.4375H45.6634C45.6634 54.214 45.6179 54.0161 45.527 53.8438C45.4361 53.6695 45.3082 53.5322 45.1435 53.4318C44.9806 53.3314 44.7893 53.2812 44.5696 53.2812C44.331 53.2812 44.1226 53.34 43.9446 53.4574C43.7685 53.5729 43.6321 53.7244 43.5355 53.9119C43.4408 54.0975 43.3935 54.2992 43.3935 54.517V55.0142C43.3935 55.3059 43.4446 55.554 43.5469 55.7585C43.651 55.9631 43.7959 56.1193 43.9815 56.2273C44.1671 56.3333 44.384 56.3864 44.6321 56.3864C44.7931 56.3864 44.9399 56.3636 45.0724 56.3182C45.205 56.2708 45.3196 56.2008 45.4162 56.108C45.5128 56.0152 45.5866 55.9006 45.6378 55.7642L46.4418 55.9091C46.3774 56.1458 46.2618 56.3532 46.0952 56.5312C45.9304 56.7074 45.723 56.8447 45.473 56.9432C45.2249 57.0398 44.9418 57.0881 44.6236 57.0881ZM51.6321 52.6364V53.3182H49.1662V52.6364H51.6321ZM49.8423 57V52.1307C49.8423 51.858 49.902 51.6316 50.0213 51.4517C50.1406 51.2699 50.2988 51.1345 50.4957 51.0455C50.6927 50.9545 50.9067 50.9091 51.1378 50.9091C51.3082 50.9091 51.4541 50.9233 51.5753 50.9517C51.6965 50.9782 51.7865 51.0028 51.8452 51.0256L51.6463 51.7131C51.6065 51.7017 51.5554 51.6884 51.4929 51.6733C51.4304 51.6562 51.3546 51.6477 51.2656 51.6477C51.0592 51.6477 50.9115 51.6989 50.8224 51.8011C50.7353 51.9034 50.6918 52.0511 50.6918 52.2443V57H49.8423ZM54.1747 57.0881C53.7656 57.0881 53.4086 56.9943 53.1037 56.8068C52.7988 56.6193 52.562 56.357 52.3935 56.0199C52.2249 55.6828 52.1406 55.2888 52.1406 54.8381C52.1406 54.3854 52.2249 53.9896 52.3935 53.6506C52.562 53.3116 52.7988 53.0483 53.1037 52.8608C53.4086 52.6733 53.7656 52.5795 54.1747 52.5795C54.5838 52.5795 54.9408 52.6733 55.2457 52.8608C55.5507 53.0483 55.7874 53.3116 55.956 53.6506C56.1245 53.9896 56.2088 54.3854 56.2088 54.8381C56.2088 55.2888 56.1245 55.6828 55.956 56.0199C55.7874 56.357 55.5507 56.6193 55.2457 56.8068C54.9408 56.9943 54.5838 57.0881 54.1747 57.0881ZM54.1776 56.375C54.4427 56.375 54.6624 56.3049 54.8366 56.1648C55.0109 56.0246 55.1397 55.8381 55.223 55.6051C55.3082 55.3722 55.3509 55.1155 55.3509 54.8352C55.3509 54.5568 55.3082 54.3011 55.223 54.0682C55.1397 53.8333 55.0109 53.6449 54.8366 53.5028C54.6624 53.3608 54.4427 53.2898 54.1776 53.2898C53.9105 53.2898 53.6889 53.3608 53.5128 53.5028C53.3385 53.6449 53.2088 53.8333 53.1236 54.0682C53.0402 54.3011 52.9986 54.5568 52.9986 54.8352C52.9986 55.1155 53.0402 55.3722 53.1236 55.6051C53.2088 55.8381 53.3385 56.0246 53.5128 56.1648C53.6889 56.3049 53.9105 56.375 54.1776 56.375ZM57.157 57V52.6364H57.978V53.3295H58.0234C58.103 53.0947 58.2431 52.91 58.4439 52.7756C58.6465 52.6392 58.8757 52.571 59.1314 52.571C59.1844 52.571 59.2469 52.5729 59.3189 52.5767C59.3928 52.5805 59.4505 52.5852 59.4922 52.5909V53.4034C59.4581 53.3939 59.3975 53.3835 59.3104 53.3722C59.2232 53.3589 59.1361 53.3523 59.049 53.3523C58.8482 53.3523 58.6693 53.3949 58.5121 53.4801C58.3568 53.5634 58.2337 53.6799 58.1428 53.8295C58.0518 53.9773 58.0064 54.1458 58.0064 54.3352V57H57.157ZM64.3587 57.0795C63.9685 57.0795 63.62 57.0123 63.3132 56.8778C63.0083 56.7434 62.7668 56.5568 62.5888 56.3182C62.4126 56.0777 62.3179 55.7992 62.3047 55.483H63.1967C63.2081 55.6553 63.2659 55.8049 63.37 55.9318C63.4761 56.0568 63.6143 56.1534 63.7848 56.2216C63.9553 56.2898 64.1446 56.3239 64.353 56.3239C64.5821 56.3239 64.7848 56.2841 64.9609 56.2045C65.139 56.125 65.2782 56.0142 65.3786 55.8722C65.4789 55.7282 65.5291 55.5625 65.5291 55.375C65.5291 55.1799 65.4789 55.0085 65.3786 54.8608C65.2801 54.7112 65.1352 54.5937 64.9439 54.5085C64.7545 54.4233 64.5253 54.3807 64.2564 54.3807H63.7649V53.6648H64.2564C64.4723 53.6648 64.6617 53.6259 64.8246 53.5483C64.9893 53.4706 65.1181 53.3627 65.2109 53.2244C65.3037 53.0843 65.3501 52.9205 65.3501 52.733C65.3501 52.553 65.3094 52.3968 65.228 52.2642C65.1484 52.1297 65.0348 52.0246 64.8871 51.9489C64.7412 51.8731 64.5689 51.8352 64.37 51.8352C64.1806 51.8352 64.0036 51.8703 63.8388 51.9403C63.6759 52.0085 63.5433 52.107 63.4411 52.2358C63.3388 52.3627 63.2839 52.5152 63.2763 52.6932H62.4268C62.4363 52.3788 62.5291 52.1023 62.7053 51.8636C62.8833 51.625 63.1181 51.4384 63.4098 51.304C63.7015 51.1695 64.0253 51.1023 64.3814 51.1023C64.7545 51.1023 65.0765 51.1752 65.3473 51.321C65.62 51.465 65.8303 51.6572 65.978 51.8977C66.1276 52.1383 66.2015 52.4015 66.1996 52.6875C66.2015 53.0133 66.1106 53.2898 65.9268 53.517C65.745 53.7443 65.5026 53.8968 65.1996 53.9744V54.0199C65.5859 54.0786 65.8852 54.232 66.0973 54.4801C66.3113 54.7282 66.4174 55.036 66.4155 55.4034C66.4174 55.7235 66.3284 56.0104 66.1484 56.2642C65.9704 56.518 65.727 56.7178 65.4183 56.8636C65.1096 57.0076 64.7564 57.0795 64.3587 57.0795Z" fill="black"/>
<path d="M44.5038 6L53 6.34146L52.1316 8.10163L45.2635 7.56019C44.7719 7.52144 44.2833 7.66568 43.8916 7.96522L42.4941 9.03378C41.9992 9.41218 41.7089 9.99958 41.7089 10.6226V12.2805H45.8956V13.7317H41.7089V18H41C40.4477 18 40 17.5523 40 17V13.7317V10.308C40 9.66988 40.3045 9.07007 40.8196 8.69346L44.5038 6Z" fill="black"/>
</svg>
