<svg width="510" height="89" viewBox="0 0 510 89" fill="none" xmlns="http://www.w3.org/2000/svg">
<path d="M64.0057 82.8523C59.7443 82.8523 56.0511 81.9148 52.9261 80.0398C49.8011 78.1648 47.3769 75.5417 45.6534 72.1705C43.9489 68.7992 43.0966 64.8598 43.0966 60.3523C43.0966 55.8447 43.9489 51.8958 45.6534 48.5057C47.3769 45.1155 49.8011 42.483 52.9261 40.608C56.0511 38.733 59.7443 37.7955 64.0057 37.7955C68.267 37.7955 71.9602 38.733 75.0852 40.608C78.2102 42.483 80.625 45.1155 82.3295 48.5057C84.053 51.8958 84.9148 55.8447 84.9148 60.3523C84.9148 64.8598 84.053 68.7992 82.3295 72.1705C80.625 75.5417 78.2102 78.1648 75.0852 80.0398C71.9602 81.9148 68.267 82.8523 64.0057 82.8523ZM64.0625 74.6136C66.3731 74.6136 68.3049 73.9792 69.858 72.7102C71.411 71.4223 72.5663 69.6989 73.3239 67.5398C74.1004 65.3807 74.4886 62.9754 74.4886 60.3239C74.4886 57.6534 74.1004 55.2386 73.3239 53.0795C72.5663 50.9015 71.411 49.1686 69.858 47.8807C68.3049 46.5928 66.3731 45.9489 64.0625 45.9489C61.6951 45.9489 59.7254 46.5928 58.1534 47.8807C56.6004 49.1686 55.4356 50.9015 54.6591 53.0795C53.9015 55.2386 53.5227 57.6534 53.5227 60.3239C53.5227 62.9754 53.9015 65.3807 54.6591 67.5398C55.4356 69.6989 56.6004 71.4223 58.1534 72.7102C59.7254 73.9792 61.6951 74.6136 64.0625 74.6136ZM112.678 82.8523C108.416 82.8523 104.723 81.9148 101.598 80.0398C98.473 78.1648 96.0488 75.5417 94.3253 72.1705C92.6207 68.7992 91.7685 64.8598 91.7685 60.3523C91.7685 55.8447 92.6207 51.8958 94.3253 48.5057C96.0488 45.1155 98.473 42.483 101.598 40.608C104.723 38.733 108.416 37.7955 112.678 37.7955C116.939 37.7955 120.632 38.733 123.757 40.608C126.882 42.483 129.297 45.1155 131.001 48.5057C132.725 51.8958 133.587 55.8447 133.587 60.3523C133.587 64.8598 132.725 68.7992 131.001 72.1705C129.297 75.5417 126.882 78.1648 123.757 80.0398C120.632 81.9148 116.939 82.8523 112.678 82.8523ZM112.734 74.6136C115.045 74.6136 116.977 73.9792 118.53 72.7102C120.083 71.4223 121.238 69.6989 121.996 67.5398C122.772 65.3807 123.161 62.9754 123.161 60.3239C123.161 57.6534 122.772 55.2386 121.996 53.0795C121.238 50.9015 120.083 49.1686 118.53 47.8807C116.977 46.5928 115.045 45.9489 112.734 45.9489C110.367 45.9489 108.397 46.5928 106.825 47.8807C105.272 49.1686 104.107 50.9015 103.331 53.0795C102.573 55.2386 102.195 57.6534 102.195 60.3239C102.195 62.9754 102.573 65.3807 103.331 67.5398C104.107 69.6989 105.272 71.4223 106.825 72.7102C108.397 73.9792 110.367 74.6136 112.734 74.6136ZM158.509 82.767C155.08 82.767 152.012 81.8864 149.304 80.125C146.596 78.3636 144.455 75.8068 142.884 72.4545C141.312 69.1023 140.526 65.0303 140.526 60.2386C140.526 55.3902 141.321 51.2992 142.912 47.9659C144.522 44.6136 146.69 42.0852 149.418 40.3807C152.145 38.6572 155.185 37.7955 158.537 37.7955C161.094 37.7955 163.196 38.2311 164.844 39.1023C166.491 39.9545 167.798 40.9867 168.764 42.1989C169.73 43.392 170.478 44.5189 171.009 45.5795H171.435V23.8182H181.747V82H171.634V75.125H171.009C170.478 76.1856 169.711 77.3125 168.707 78.5057C167.704 79.6799 166.378 80.6837 164.73 81.517C163.082 82.3504 161.009 82.767 158.509 82.767ZM161.378 74.3295C163.556 74.3295 165.412 73.7424 166.946 72.5682C168.48 71.375 169.645 69.7178 170.44 67.5966C171.236 65.4754 171.634 63.0038 171.634 60.1818C171.634 57.3598 171.236 54.9072 170.44 52.8239C169.664 50.7405 168.509 49.1212 166.974 47.9659C165.459 46.8106 163.594 46.233 161.378 46.233C159.086 46.233 157.173 46.8295 155.639 48.0227C154.105 49.2159 152.95 50.8636 152.173 52.9659C151.397 55.0682 151.009 57.4735 151.009 60.1818C151.009 62.9091 151.397 65.3428 152.173 67.483C152.969 69.6042 154.134 71.2803 155.668 72.5114C157.221 73.7235 159.124 74.3295 161.378 74.3295ZM213.004 82V23.8182H223.544V48.4489H250.504V23.8182H261.072V82H250.504V57.2841H223.544V82H213.004ZM291.115 82.8523C286.854 82.8523 283.161 81.9148 280.036 80.0398C276.911 78.1648 274.486 75.5417 272.763 72.1705C271.058 68.7992 270.206 64.8598 270.206 60.3523C270.206 55.8447 271.058 51.8958 272.763 48.5057C274.486 45.1155 276.911 42.483 280.036 40.608C283.161 38.733 286.854 37.7955 291.115 37.7955C295.376 37.7955 299.07 38.733 302.195 40.608C305.32 42.483 307.734 45.1155 309.439 48.5057C311.162 51.8958 312.024 55.8447 312.024 60.3523C312.024 64.8598 311.162 68.7992 309.439 72.1705C307.734 75.5417 305.32 78.1648 302.195 80.0398C299.07 81.9148 295.376 82.8523 291.115 82.8523ZM291.172 74.6136C293.482 74.6136 295.414 73.9792 296.967 72.7102C298.52 71.4223 299.676 69.6989 300.433 67.5398C301.21 65.3807 301.598 62.9754 301.598 60.3239C301.598 57.6534 301.21 55.2386 300.433 53.0795C299.676 50.9015 298.52 49.1686 296.967 47.8807C295.414 46.5928 293.482 45.9489 291.172 45.9489C288.804 45.9489 286.835 46.5928 285.263 47.8807C283.71 49.1686 282.545 50.9015 281.768 53.0795C281.011 55.2386 280.632 57.6534 280.632 60.3239C280.632 62.9754 281.011 65.3807 281.768 67.5398C282.545 69.6989 283.71 71.4223 285.263 72.7102C286.835 73.9792 288.804 74.6136 291.172 74.6136ZM348.565 63.6477V38.3636H358.849V82H348.878V74.2443H348.423C347.438 76.6875 345.819 78.6856 343.565 80.2386C341.33 81.7917 338.575 82.5682 335.298 82.5682C332.438 82.5682 329.91 81.9337 327.713 80.6648C325.535 79.3769 323.83 77.5114 322.599 75.0682C321.368 72.6061 320.753 69.6326 320.753 66.1477V38.3636H331.037V64.5568C331.037 67.322 331.795 69.5189 333.31 71.1477C334.825 72.7765 336.813 73.5909 339.276 73.5909C340.791 73.5909 342.259 73.2216 343.679 72.483C345.099 71.7443 346.264 70.6458 347.173 69.1875C348.101 67.7102 348.565 65.8636 348.565 63.6477ZM403.913 49.8977L394.538 50.9205C394.273 49.9735 393.809 49.0833 393.146 48.25C392.502 47.4167 391.631 46.7443 390.533 46.233C389.434 45.7216 388.089 45.4659 386.499 45.4659C384.358 45.4659 382.559 45.9299 381.101 46.858C379.661 47.786 378.951 48.9886 378.97 50.4659C378.951 51.7348 379.415 52.767 380.362 53.5625C381.328 54.358 382.919 55.0114 385.135 55.5227L392.578 57.1136C396.707 58.0038 399.775 59.4148 401.783 61.3466C403.809 63.2784 404.832 65.8068 404.851 68.9318C404.832 71.678 404.027 74.1023 402.436 76.2045C400.864 78.2879 398.677 79.9167 395.874 81.0909C393.071 82.2652 389.851 82.8523 386.214 82.8523C380.874 82.8523 376.574 81.7348 373.317 79.5C370.059 77.2462 368.118 74.1117 367.493 70.0966L377.521 69.1307C377.976 71.1004 378.942 72.5871 380.419 73.5909C381.896 74.5947 383.819 75.0966 386.186 75.0966C388.629 75.0966 390.589 74.5947 392.067 73.5909C393.563 72.5871 394.311 71.3466 394.311 69.8693C394.311 68.6193 393.828 67.5871 392.862 66.7727C391.915 65.9583 390.438 65.3333 388.43 64.8977L380.987 63.3352C376.802 62.464 373.705 60.9962 371.697 58.9318C369.69 56.8485 368.696 54.2159 368.714 51.0341C368.696 48.3447 369.425 46.0152 370.902 44.0455C372.398 42.0568 374.472 40.5227 377.124 39.4432C379.794 38.3447 382.872 37.7955 386.357 37.7955C391.47 37.7955 395.495 38.8845 398.43 41.0625C401.385 43.2405 403.213 46.1856 403.913 49.8977ZM432.649 82.8523C428.274 82.8523 424.496 81.9432 421.314 80.125C418.151 78.2879 415.717 75.6932 414.013 72.3409C412.308 68.9697 411.456 65.0019 411.456 60.4375C411.456 55.9489 412.308 52.0095 414.013 48.6193C415.736 45.2102 418.142 42.5587 421.229 40.6648C424.316 38.7519 427.943 37.7955 432.109 37.7955C434.799 37.7955 437.337 38.2311 439.723 39.1023C442.128 39.9545 444.25 41.2803 446.087 43.0795C447.943 44.8788 449.401 47.1705 450.462 49.9545C451.522 52.7197 452.053 56.0152 452.053 59.8409V62.9943H416.286V56.0625H442.195C442.176 54.0928 441.75 52.3409 440.916 50.8068C440.083 49.2538 438.918 48.0322 437.422 47.142C435.945 46.2519 434.221 45.8068 432.251 45.8068C430.149 45.8068 428.303 46.3182 426.712 47.3409C425.121 48.3447 423.88 49.6705 422.99 51.3182C422.119 52.947 421.674 54.7367 421.655 56.6875V62.7386C421.655 65.2765 422.119 67.4545 423.047 69.2727C423.975 71.072 425.272 72.4545 426.939 73.4205C428.606 74.3674 430.556 74.8409 432.791 74.8409C434.287 74.8409 435.642 74.6326 436.854 74.2159C438.066 73.7803 439.117 73.1458 440.007 72.3125C440.897 71.4792 441.57 70.447 442.024 69.2159L451.626 70.2955C451.02 72.8333 449.865 75.0492 448.161 76.9432C446.475 78.8182 444.316 80.2765 441.683 81.3182C439.051 82.3409 436.039 82.8523 432.649 82.8523Z" fill="black"/>
<path d="M90.8744 0L480 2L474.918 18.1667L93.1146 10.0837C92.0587 10.0614 91.0059 10.2065 89.9954 10.5135L16 33V48.5H40.5V57H16V82H8C6.89543 82 6 81.1046 6 80V57V31L90.8744 0Z" fill="black"/>
</svg>
