<svg width="59" height="59" viewBox="0 0 59 59" fill="none" xmlns="http://www.w3.org/2000/svg">
<path d="M16.1521 57.9109C12.8288 57.4026 10.0719 55.6813 8.25679 52.9805C7.56087 51.9455 6.90903 50.3889 6.67634 49.2076C6.48116 48.2173 6.46545 47.7394 6.46545 42.7511V37.7428H5.94947C5.05009 37.7428 4.13881 37.5338 3.35248 37.1534C2.12511 36.5563 1.34421 35.3318 1.08639 33.5995C0.970713 32.8219 0.971189 32.0448 1.08791 31.653C1.44304 30.4598 3.34434 30.3035 3.81562 31.4297C3.87656 31.577 3.90607 31.8382 3.90655 32.2415C3.90883 33.4309 4.09506 34.0654 4.5571 34.4602C4.89271 34.7452 5.28373 34.8639 5.91253 34.8686L6.43613 34.8715L6.45041 31.3452L6.46469 27.8184H29.4151H52.3656V31.3276V34.8373L52.5764 34.8848C52.6921 34.8848 52.9868 34.9323 53.2309 34.8848C54.6059 34.7851 55.0952 34.0916 55.0988 32.2443C55.1 31.6078 55.1735 31.3314 55.4082 31.0801C55.9234 30.5291 57.0129 30.5382 57.5741 31.0801C57.9492 31.4554 58.0363 31.8031 57.9877 32.7355C57.8849 34.7048 57.2362 36.1274 56.0969 36.8807C55.2807 37.4198 54.4346 37.6621 53.195 37.7115L52.3659 37.759V42.7164C52.3659 47.8169 52.3469 48.2809 52.1236 49.3815C51.8123 50.9005 51.0583 52.5516 50.1137 53.7827C49.7367 54.2739 48.8738 55.1602 48.381 55.5625C47.1705 56.5505 45.7626 57.2663 44.27 57.6515C42.8392 58.022 43.6414 58.003 29.5241 57.9983C18.9188 57.9983 16.5843 57.9964 16.1521 57.9109ZM6.46569 23.8983V21.8373H16.1415H25.8174L25.9141 21.5333C26.0335 21.1533 26.3611 20.6019 26.6276 20.3278L26.8275 20.1236V18.6022V17.0808H29.4164H32.0052V18.6022V20.1236L32.2052 20.3278C32.4718 20.6033 32.7993 21.1552 32.9187 21.5333L33.0153 21.8373H42.6912H52.3671V23.8983V25.9588H29.4162H6.46536L6.46569 23.8983ZM15.2335 19.3127C14.8727 19.2225 14.5328 18.9755 14.3193 18.6554C13.9418 18.0868 13.9413 17.6132 14.3173 16.8941C14.6734 16.2134 14.7886 15.8406 14.8249 15.2492C14.8872 14.2365 14.662 13.4642 13.6822 11.3305C12.7833 9.37359 12.6312 8.93328 12.5094 7.93485C12.3095 6.29566 12.9932 4.4432 14.3345 2.99116C14.8252 2.46012 15.3844 2.28675 16.0161 2.4701C16.3913 2.57934 16.8273 2.93084 16.9982 3.26665C17.1319 3.5279 17.1486 3.99244 17.0315 4.26508C16.9886 4.36958 16.8363 4.58332 16.6945 4.74197C16.2498 5.24261 16.0727 5.49578 15.8636 5.93134C15.5927 6.49563 15.5199 6.88417 15.5527 7.58573C15.586 8.30439 15.785 8.92615 16.4663 10.4475C17.06 11.7732 17.2868 12.3689 17.4768 13.1013C17.9485 14.9186 17.8105 16.3797 17.0169 17.9795C16.7375 18.5423 16.4141 19.005 16.1795 19.1764C15.9639 19.3332 15.5522 19.3935 15.2335 19.3127ZM21.7763 18.8615C21.5178 18.7808 21.0344 18.3381 20.8781 18.0417C20.7024 17.7092 20.6977 17.0299 20.8686 16.7003C21.688 15.1191 21.7378 14.9443 21.7355 13.6528C21.7334 12.5114 21.6712 12.1874 21.0719 10.1986C20.3871 7.9263 20.2461 7.22379 20.2437 6.07432C20.2406 4.59092 20.5878 3.40583 21.3806 2.19223C21.9902 1.25887 22.3251 1.00143 22.9299 1C23.3435 0.999054 23.7596 1.19 24.0554 1.51774C24.3401 1.83124 24.4424 2.07965 24.4424 2.4492C24.4424 2.81494 24.3553 3.02583 23.9472 3.63809C23.1844 4.78187 23.0128 6.00877 23.3901 7.62278C23.4525 7.88878 23.6905 8.70386 23.9185 9.43107C24.5965 11.5932 24.7791 12.6306 24.7127 13.943C24.6522 15.14 24.389 16.1351 23.8291 17.2807C23.3854 18.1894 23.0711 18.6359 22.7598 18.8002C22.4828 18.9475 22.1144 18.9708 21.7763 18.8615Z" fill="white" stroke="white" stroke-width="0.1"/>
</svg>
