<svg width="102" height="102" viewBox="0 0 102 102" fill="none" xmlns="http://www.w3.org/2000/svg">
<path d="M88.6959 67.8765L86.5639 67.2217C84.7157 75.6521 79.8642 82.7304 73.2529 86.6419L74.2379 88.9737C81.4186 84.7256 86.6883 77.0358 88.6959 67.8765Z" fill="white" stroke="white" stroke-width="0.1"/>
<path d="M94.1857 98.3933H3.37549V101H94.1857V98.3933Z" fill="white" stroke="white" stroke-width="0.1"/>
<path d="M8.12765 54.3196C8.262 53.4971 8.39217 52.7261 8.5186 51.9969L14.6033 54.6465L15.3638 52.2L8.98289 49.4214C9.83042 44.9176 10.4881 42.5113 11.0365 40.7488C11.6416 38.8013 12.8516 37.2492 14.444 36.3785C16.0365 35.5078 17.8196 35.4234 19.466 36.1408C21.1122 36.8569 22.4238 38.289 23.1594 40.1738C23.8948 42.0582 23.9666 44.1689 23.3616 46.1165C23.2836 46.367 23.1689 46.6994 23.0218 47.1021L17.6725 44.7727L16.912 47.2192L22.1024 49.4795C21.2919 51.5003 20.179 54.1356 18.9136 56.9749H4.31266V59.6536C4.31266 60.3807 4.33094 61.1163 4.36706 61.84C5.09081 76.4008 12.9743 88.5842 23.8189 93.7137H3.37549V96.3205H35.2931H62.2681H94.1857V93.7137H73.7392C85.1595 88.3069 93.2483 75.0781 93.2483 59.6536V59.4443C94.655 59.1776 95.9884 58.5272 97.1624 57.526C99.1627 55.8193 100.482 53.2936 100.878 50.4133C101.274 47.5323 100.698 44.6418 99.2565 42.2751C98.2339 40.5953 96.8401 39.3299 95.2722 38.5667C95.8263 37.6287 96.1787 36.5266 96.2671 35.3762C96.3168 34.7401 96.2875 34.0955 96.1796 33.4576C95.5656 29.8839 92.6091 27.5659 89.5886 28.2919C89.0663 28.4176 88.5684 28.6285 88.1065 28.9147C88.0981 28.8516 88.0924 28.7885 88.0834 28.7252C87.5788 25.231 85.9551 22.1782 83.5107 20.1295C78.465 15.9002 71.453 17.3181 67.8794 23.29C67.3052 24.2498 66.8517 25.2845 66.5176 26.3624C61.5359 24.9291 56.4252 28.4009 54.9973 34.2845C54.376 36.8417 54.5319 39.5891 55.4363 42.0202L57.452 40.9699C56.7547 39.0958 56.6347 36.9773 57.1139 35.0047C57.6613 32.7496 58.9178 30.8815 60.6521 29.745C62.2854 28.6751 64.1583 28.3748 65.9634 28.8842C65.5767 31.7916 66.0015 34.8332 67.2607 37.4799L69.18 36.201C67.4777 32.6226 67.6726 28.1465 69.6769 24.7967C71.0676 22.4722 73.1404 20.9277 75.5127 20.448C77.8848 19.9684 80.2732 20.6107 82.2374 22.2572C84.2014 23.9034 85.5066 26.3564 85.9119 29.1642C86.3172 31.972 85.7742 34.7988 84.3833 37.1233L86.1808 38.6297C87.3574 36.6637 88.0448 34.4088 88.2069 32.0692C88.688 31.4467 89.3199 31.0168 90.0271 30.8466C91.858 30.4074 93.6489 31.8114 94.0205 33.9737C94.0861 34.3606 94.104 34.7516 94.0738 35.1382C93.9943 36.1775 93.5602 37.1519 92.8935 37.8266C91.971 37.6889 91.0257 37.709 90.087 37.9131L90.4848 40.4772C93.1478 39.898 95.8893 41.2021 97.4698 43.799C99.7351 47.5187 99.0198 52.7279 95.8748 55.4113C94.7002 56.4131 93.3161 56.953 91.871 56.9746H79.7684C83.0724 51.266 85.8593 50.9644 85.8899 50.962L85.8674 50.9631L85.8051 48.3573C85.356 48.3724 81.3848 48.7486 77.1489 56.9746H76.5999C76.6388 56.5528 76.6642 56.1277 76.6699 55.6999C76.7184 51.9862 75.5332 48.4843 73.3329 45.8394C71.1319 43.1937 68.1926 41.7368 65.0562 41.7368C63.0955 41.7368 61.1549 42.3267 59.4433 43.4437C58.9396 43.774 58.4075 44.0861 57.8626 44.3707C55.0645 45.8305 52.1087 46.4184 49.3146 46.0696C49.0833 46.0409 48.8474 46.0273 48.6098 46.0229C46.0403 43.4813 43.1314 41.2981 40.8734 39.7559C40.8278 36.842 41.0454 33.9049 41.5245 31.0218L41.7828 29.4668H40.4439C39.8261 29.4668 38.2476 29.6344 36.9364 31.1863C36.8113 31.3346 36.6948 31.4902 36.5849 31.6508C36.475 31.4902 36.3585 31.3346 36.2334 31.1863C34.922 29.6342 33.3437 29.4668 32.7259 29.4668H31.3869L31.6451 31.0215C32.1241 33.9049 32.3415 36.8417 32.2961 39.7543C30.422 41.0337 28.0999 42.7537 25.8972 44.7539C26.1082 42.8348 25.8617 40.8802 25.1591 39.0802C24.6609 37.8039 23.9644 36.684 23.1127 35.7643C23.6004 35.3903 24.0684 34.9515 24.4796 34.541C26.0626 32.9594 27.8986 30.6313 29.6496 27.9856C31.4004 25.3408 32.8701 22.6737 33.7881 20.4759C34.5478 18.6572 35.412 16.1035 34.1498 14.9318C33.1216 13.9785 31.4206 14.7743 29.0774 17.2956C29.1098 16.9427 29.1351 16.5978 29.1509 16.2646C29.3357 12.3706 28.2898 11.0807 27.3797 10.6845C25.7703 9.9838 23.9722 11.7669 22.3749 14.5934C21.9817 10.7275 21.1142 8.73957 19.7825 8.67545C18.1914 8.59959 17.4401 11.2069 17.0228 13.1748C16.5182 15.5527 16.177 18.7109 16.0618 22.0679C15.9464 25.426 16.0695 28.6076 16.4089 31.0262C16.4994 31.6717 16.6193 32.3862 16.7937 33.0613C15.6759 33.1226 14.5674 33.4393 13.5207 34.0115C11.394 35.1742 9.77778 37.2474 8.96989 39.8479C8.21927 42.26 7.27527 45.8071 5.96521 53.824L8.12765 54.3196ZM24.4937 49.5828C25.3161 48.654 26.2176 47.7572 27.1495 46.9082C25.7132 49.7126 24.7219 52.9781 24.7219 56.4413C24.7219 56.6196 24.7274 56.7971 24.7305 56.9752H21.4007C22.6894 54.0446 23.7605 51.4615 24.4937 49.5828ZM40.7908 52.8637H36.7591V55.4705H40.475C40.4741 55.9778 40.5052 56.4804 40.5715 56.9752H33.1505C33.149 56.7971 33.1465 56.6196 33.1465 56.4413C33.1465 50.4159 34.5471 45.3879 35.6805 42.5871V42.9625H35.6827L35.6825 42.5824C36.0316 41.7201 36.3558 41.0666 36.6052 40.6641C37.2798 41.7112 38.5147 44.5542 39.3275 48.9256L41.4787 48.3656C41.0516 46.0677 40.4433 43.8478 39.7418 42.0009C41.491 43.195 43.6473 44.7855 45.6914 46.6105C44.0488 47.336 42.6253 48.6978 41.6712 50.5215C41.2866 51.2535 40.9926 52.0428 40.7908 52.8637ZM26.933 56.9752C26.9295 56.7971 26.9244 56.6198 26.9244 56.4413C26.9244 51.2816 29.5273 47.0589 31.079 45.001C31.8352 43.9982 32.5838 43.1721 33.278 42.5071C33.1384 42.8994 33.0071 43.2918 32.8855 43.6739C32.1605 45.9533 30.9442 50.643 30.9442 56.4413C30.9442 56.6196 30.9467 56.7971 30.9482 56.9752H26.933ZM91.0458 59.6539C91.0458 78.4349 78.1361 93.7139 62.2681 93.7139H35.2931C20.077 93.7139 7.45852 79.646 6.56584 61.687C6.53236 61.0141 6.5154 60.3301 6.5154 59.6539V59.582H91.046V59.6539H91.0458ZM59.6733 55.4828C59.6733 51.9487 62.1033 49.0739 65.0906 49.0739C68.0765 49.0739 70.5057 51.949 70.5057 55.4828C70.5057 55.9903 70.4504 56.4885 70.3522 56.9752H59.8274C59.7285 56.4898 59.6733 55.9916 59.6733 55.4828ZM58.7513 46.7565C59.357 46.44 59.949 46.0928 60.5085 45.7257C61.8936 44.822 63.4662 44.3441 65.056 44.3441C67.5975 44.3441 69.9795 45.525 71.7633 47.6688C73.5465 49.8122 74.5068 52.6502 74.4674 55.6592C74.4614 56.1019 74.431 56.5416 74.3817 56.9752H72.6021C72.671 56.4846 72.7078 55.9866 72.7078 55.4828C72.7078 50.5116 69.2903 46.4671 65.0901 46.4671C60.8886 46.4671 57.4703 50.5116 57.4703 55.4828C57.4703 55.9872 57.5071 56.4851 57.5762 56.9752H42.813C42.7092 56.4236 42.663 55.8563 42.6775 55.2802C42.7075 54.086 43.0061 52.9166 43.5422 51.8958C44.5552 49.9594 46.2896 48.74 48.1818 48.6336C48.4878 48.6164 48.7908 48.6263 49.0829 48.6628C52.2596 49.0583 55.6021 48.3995 58.7513 46.7565ZM38.4936 33.0303C38.6795 32.8103 38.8766 32.6406 39.0722 32.5097C38.829 34.4346 38.6949 36.3754 38.6687 38.3117C38.2769 38.0662 37.9456 37.8641 37.6859 37.7085V35.3384C37.6859 34.4664 37.9727 33.6468 38.4936 33.0303ZM34.0969 32.5097C34.2925 32.6406 34.4896 32.8103 34.6755 33.0303C35.1964 33.6468 35.4832 34.4664 35.4832 35.3384V37.7082C35.2235 37.8636 34.8911 38.0664 34.5004 38.3112C34.4744 36.3751 34.3403 34.4346 34.0969 32.5097ZM32.4626 17.4849C32.0512 19.0182 30.6594 22.2332 27.9155 26.3788C27.2416 27.397 26.5947 28.3068 25.9844 29.1144C26.5185 27.8493 27.0059 26.505 27.4253 25.1559C27.7603 24.0791 28.0477 23.0079 28.2917 21.9608C30.2209 19.4277 31.6532 18.0672 32.4626 17.4849ZM26.6169 13.1386C27.0837 13.6651 27.3885 17.7258 25.3586 24.2555C23.3284 30.7859 20.8723 33.6442 20.2287 33.687C19.762 33.1604 19.457 29.0998 21.487 22.5697C23.5173 16.0394 25.9734 13.1813 26.6169 13.1386ZM18.2626 22.1745C18.4429 16.913 19.144 13.3972 19.6702 11.9139C19.9763 13.0087 20.3342 15.2321 20.4023 18.8141L20.4144 18.8138C20.0534 19.7453 19.7195 20.7064 19.42 21.6696C18.95 23.1815 18.5478 24.7553 18.2489 26.2863C18.2117 25.0605 18.2104 23.6886 18.2626 22.1745Z" fill="white" stroke="white" stroke-width="0.1"/>
<path d="M12.0235 45.0899L14.9331 46.3569L15.6936 43.9104L12.784 42.6434L12.0235 45.0899Z" fill="white" stroke="white" stroke-width="0.1"/>
<path d="M93.813 52.4497C93.0192 53.1262 92.0505 53.396 91.0847 53.2107L90.7314 55.7836C91.0499 55.8448 91.3689 55.8754 91.6851 55.8754C92.9049 55.8754 94.0909 55.4252 95.1001 54.5654C96.3712 53.482 97.2097 51.8773 97.4615 50.0473C97.7128 48.2173 97.3469 46.3811 96.4318 44.8767L94.6444 46.4001C95.2162 47.3396 95.4444 48.4864 95.2874 49.6289C95.1301 50.7712 94.6066 51.773 93.813 52.4497Z" fill="white" stroke="white" stroke-width="0.1"/>
<path d="M74.8371 27.3827L75.4459 24.8773C72.9213 24.0189 70.2761 25.7506 69.5502 28.7388C68.8244 31.7272 70.2882 34.8572 72.813 35.7164L73.4213 33.211C72.0637 32.7491 71.2769 31.0659 71.667 29.4591C72.0573 27.8522 73.4795 26.9208 74.8371 27.3827Z" fill="white" stroke="white" stroke-width="0.1"/>
<path d="M36.4228 10.0657H38.6253V6.83638H41.354V4.22957H38.6253V1H36.4228V4.22957H33.6943V6.83638H36.4228V10.0657Z" fill="white" stroke="white" stroke-width="0.1"/>
<path d="M62.2048 21.7239H64.4073V18.4946H67.136V15.8878H64.4073V12.6582H62.2048V15.8878H59.4761V18.4946H62.2048V21.7239Z" fill="white" stroke="white" stroke-width="0.1"/>
<path d="M3.7287 32.7717H5.93123V29.5424H8.65993V26.9356H5.93123V23.7061H3.7287V26.9356H1V29.5424H3.7287V32.7717Z" fill="white" stroke="white" stroke-width="0.1"/>
</svg>
