<svg width="102" height="102" viewBox="0 0 102 102" fill="none" xmlns="http://www.w3.org/2000/svg">
<mask id="path-1-outside-1_242_11" maskUnits="userSpaceOnUse" x="0" y="0" width="102" height="102" fill="black">
<rect fill="white" width="102" height="102"/>
<path d="M59 1C56.8125 1 55 2.8125 55 5V11C55 12.9531 56.4453 14.6094 58.3125 14.9375C57.4922 16.2656 56.6719 17.7656 55.875 19.5625C54.2188 23.2969 52.625 27.8594 51.375 32.1875L48.625 30.625C48.2109 30.3828 47.7266 30.2891 47.25 30.375C46.8672 30.4609 46.5234 30.6562 46.25 30.9375L43.5625 33.5C39.9844 30.4297 35.3281 28.5625 30.25 28.5625C19.3359 28.5625 10.3516 37.1562 9.8125 49H6.6875C3.57031 49 1 51.5703 1 54.6875V61.3125C1 64.4297 3.57031 67 6.6875 67H7V73C7 73.4375 7.04688 73.3828 7.0625 73.4375C7.07813 73.4922 7.05469 73.5234 7.0625 73.5625C7.08594 73.6406 7.10156 73.7109 7.125 73.8125C7.17969 74.0078 7.28125 74.3047 7.375 74.625C7.5625 75.2656 7.80469 76.1328 8.125 77.1875C8.75781 79.2969 9.65625 82.1094 10.5 84.875C12.1953 90.4141 13.875 95.875 13.875 95.875C13.8984 96.0234 13.9453 96.1719 14 96.3125C14.5391 97.2812 15.0938 98.2656 15.875 99.1875C16.6562 100.109 17.9141 101 19.4375 101H82.5625C84.1094 101 85.5391 100.242 86.375 99.25C87.2109 98.2578 87.6172 97.1328 88.0625 96.0625C88.0859 96 88.1094 95.9375 88.125 95.875C88.125 95.875 89.8047 90.4141 91.5 84.875C92.3438 82.1094 93.2422 79.2969 93.875 77.1875C94.1953 76.1328 94.4375 75.2656 94.625 74.625C94.7188 74.3047 94.8203 74.0078 94.875 73.8125C94.8984 73.7109 94.9141 73.6406 94.9375 73.5625C94.9453 73.5234 94.9219 73.4922 94.9375 73.4375C94.9531 73.3828 95 73.4375 95 73V67H95.3125C98.4297 67 101 64.4297 101 61.3125V54.6875C101 51.5703 98.4297 49 95.3125 49H89V44.625C89 40.1172 86.8828 32.4062 84.3125 25.3125C83.0312 21.7656 81.6562 18.4062 80.25 15.875C80.0625 15.5391 79.875 15.25 79.6875 14.9375C81.5547 14.6094 83 12.9531 83 11V5C83 2.8125 81.1875 1 79 1H59ZM59 5H79V11H59V5ZM63.1875 15H74.6875C74.7422 15.0312 74.9062 15.1328 75.125 15.375C75.5625 15.8594 76.1328 16.7656 76.75 17.875C77.9844 20.0938 79.3281 23.2109 80.5625 26.625C83.0312 33.4531 85 41.5391 85 44.625V49H81C80.9766 48.9766 80.9609 48.9609 80.9375 48.9375L54.9375 34.25C56.1641 29.8047 57.8281 24.9688 59.5 21.1875C60.4219 19.1016 61.4062 17.3203 62.1875 16.1875C62.5781 15.625 62.9141 15.2422 63.125 15.0625C63.1797 15.0156 63.1641 15.0156 63.1875 15ZM30.25 32.5625C34.2031 32.5625 37.7969 33.9375 40.625 36.25L27.125 49H13.8125C14.3203 39.1328 21.4453 32.5625 30.25 32.5625ZM47.875 34.875L72.875 49H32.9375L47.875 34.875ZM6.6875 53H95.3125C96.2578 53 97 53.7422 97 54.6875V61.3125C97 62.2578 96.2578 63 95.3125 63H9.125C9.08594 63 9.03906 63 9 63H6.6875C5.74219 63 5 62.2578 5 61.3125V54.6875C5 53.7422 5.74219 53 6.6875 53ZM11 67H25V91C25 92.1016 25.8984 93 27 93H33C34.1016 93 35 92.1016 35 91V67H39V91C39 92.1016 39.8984 93 41 93H47C48.1016 93 49 92.1016 49 91V67H53V91C53 92.1016 53.8984 93 55 93H61C62.1016 93 63 92.1016 63 91V67H67V91C67 92.1016 67.8984 93 69 93H75C76.1016 93 77 92.1016 77 91V67H91V72.75C90.9531 72.9141 90.9062 73.1875 90.8125 73.5C90.6328 74.125 90.3203 75.0078 90 76.0625C89.3672 78.1641 88.5312 80.9219 87.6875 83.6875C86.0234 89.125 84.4297 94.3828 84.375 94.5625L84.3125 94.75C83.9297 95.6328 83.5703 96.3203 83.3125 96.625C83.0312 96.9609 83.0469 97 82.5625 97H19.4375C19.2891 97 19.3047 97 18.9375 96.5625C18.6016 96.1641 18.1172 95.3828 17.625 94.5C17.5547 94.2656 15.9688 89.1016 14.3125 83.6875C13.4688 80.9219 12.6328 78.1641 12 76.0625C11.6797 75.0078 11.3672 74.125 11.1875 73.5C11.0938 73.1875 11.0469 72.9141 11 72.75V67ZM29 67H31V89H29V67ZM43 67H45V89H43V67ZM57 67H59V89H57V67ZM71 67H73V89H71V67Z"/>
</mask>
<path d="M59 1C56.8125 1 55 2.8125 55 5V11C55 12.9531 56.4453 14.6094 58.3125 14.9375C57.4922 16.2656 56.6719 17.7656 55.875 19.5625C54.2188 23.2969 52.625 27.8594 51.375 32.1875L48.625 30.625C48.2109 30.3828 47.7266 30.2891 47.25 30.375C46.8672 30.4609 46.5234 30.6562 46.25 30.9375L43.5625 33.5C39.9844 30.4297 35.3281 28.5625 30.25 28.5625C19.3359 28.5625 10.3516 37.1562 9.8125 49H6.6875C3.57031 49 1 51.5703 1 54.6875V61.3125C1 64.4297 3.57031 67 6.6875 67H7V73C7 73.4375 7.04688 73.3828 7.0625 73.4375C7.07813 73.4922 7.05469 73.5234 7.0625 73.5625C7.08594 73.6406 7.10156 73.7109 7.125 73.8125C7.17969 74.0078 7.28125 74.3047 7.375 74.625C7.5625 75.2656 7.80469 76.1328 8.125 77.1875C8.75781 79.2969 9.65625 82.1094 10.5 84.875C12.1953 90.4141 13.875 95.875 13.875 95.875C13.8984 96.0234 13.9453 96.1719 14 96.3125C14.5391 97.2812 15.0938 98.2656 15.875 99.1875C16.6562 100.109 17.9141 101 19.4375 101H82.5625C84.1094 101 85.5391 100.242 86.375 99.25C87.2109 98.2578 87.6172 97.1328 88.0625 96.0625C88.0859 96 88.1094 95.9375 88.125 95.875C88.125 95.875 89.8047 90.4141 91.5 84.875C92.3438 82.1094 93.2422 79.2969 93.875 77.1875C94.1953 76.1328 94.4375 75.2656 94.625 74.625C94.7188 74.3047 94.8203 74.0078 94.875 73.8125C94.8984 73.7109 94.9141 73.6406 94.9375 73.5625C94.9453 73.5234 94.9219 73.4922 94.9375 73.4375C94.9531 73.3828 95 73.4375 95 73V67H95.3125C98.4297 67 101 64.4297 101 61.3125V54.6875C101 51.5703 98.4297 49 95.3125 49H89V44.625C89 40.1172 86.8828 32.4062 84.3125 25.3125C83.0312 21.7656 81.6562 18.4062 80.25 15.875C80.0625 15.5391 79.875 15.25 79.6875 14.9375C81.5547 14.6094 83 12.9531 83 11V5C83 2.8125 81.1875 1 79 1H59ZM59 5H79V11H59V5ZM63.1875 15H74.6875C74.7422 15.0312 74.9062 15.1328 75.125 15.375C75.5625 15.8594 76.1328 16.7656 76.75 17.875C77.9844 20.0938 79.3281 23.2109 80.5625 26.625C83.0312 33.4531 85 41.5391 85 44.625V49H81C80.9766 48.9766 80.9609 48.9609 80.9375 48.9375L54.9375 34.25C56.1641 29.8047 57.8281 24.9688 59.5 21.1875C60.4219 19.1016 61.4062 17.3203 62.1875 16.1875C62.5781 15.625 62.9141 15.2422 63.125 15.0625C63.1797 15.0156 63.1641 15.0156 63.1875 15ZM30.25 32.5625C34.2031 32.5625 37.7969 33.9375 40.625 36.25L27.125 49H13.8125C14.3203 39.1328 21.4453 32.5625 30.25 32.5625ZM47.875 34.875L72.875 49H32.9375L47.875 34.875ZM6.6875 53H95.3125C96.2578 53 97 53.7422 97 54.6875V61.3125C97 62.2578 96.2578 63 95.3125 63H9.125C9.08594 63 9.03906 63 9 63H6.6875C5.74219 63 5 62.2578 5 61.3125V54.6875C5 53.7422 5.74219 53 6.6875 53ZM11 67H25V91C25 92.1016 25.8984 93 27 93H33C34.1016 93 35 92.1016 35 91V67H39V91C39 92.1016 39.8984 93 41 93H47C48.1016 93 49 92.1016 49 91V67H53V91C53 92.1016 53.8984 93 55 93H61C62.1016 93 63 92.1016 63 91V67H67V91C67 92.1016 67.8984 93 69 93H75C76.1016 93 77 92.1016 77 91V67H91V72.75C90.9531 72.9141 90.9062 73.1875 90.8125 73.5C90.6328 74.125 90.3203 75.0078 90 76.0625C89.3672 78.1641 88.5312 80.9219 87.6875 83.6875C86.0234 89.125 84.4297 94.3828 84.375 94.5625L84.3125 94.75C83.9297 95.6328 83.5703 96.3203 83.3125 96.625C83.0312 96.9609 83.0469 97 82.5625 97H19.4375C19.2891 97 19.3047 97 18.9375 96.5625C18.6016 96.1641 18.1172 95.3828 17.625 94.5C17.5547 94.2656 15.9688 89.1016 14.3125 83.6875C13.4688 80.9219 12.6328 78.1641 12 76.0625C11.6797 75.0078 11.3672 74.125 11.1875 73.5C11.0938 73.1875 11.0469 72.9141 11 72.75V67ZM29 67H31V89H29V67ZM43 67H45V89H43V67ZM57 67H59V89H57V67ZM71 67H73V89H71V67Z" fill="white"/>
<path d="M59 1C56.8125 1 55 2.8125 55 5V11C55 12.9531 56.4453 14.6094 58.3125 14.9375C57.4922 16.2656 56.6719 17.7656 55.875 19.5625C54.2188 23.2969 52.625 27.8594 51.375 32.1875L48.625 30.625C48.2109 30.3828 47.7266 30.2891 47.25 30.375C46.8672 30.4609 46.5234 30.6562 46.25 30.9375L43.5625 33.5C39.9844 30.4297 35.3281 28.5625 30.25 28.5625C19.3359 28.5625 10.3516 37.1562 9.8125 49H6.6875C3.57031 49 1 51.5703 1 54.6875V61.3125C1 64.4297 3.57031 67 6.6875 67H7V73C7 73.4375 7.04688 73.3828 7.0625 73.4375C7.07813 73.4922 7.05469 73.5234 7.0625 73.5625C7.08594 73.6406 7.10156 73.7109 7.125 73.8125C7.17969 74.0078 7.28125 74.3047 7.375 74.625C7.5625 75.2656 7.80469 76.1328 8.125 77.1875C8.75781 79.2969 9.65625 82.1094 10.5 84.875C12.1953 90.4141 13.875 95.875 13.875 95.875C13.8984 96.0234 13.9453 96.1719 14 96.3125C14.5391 97.2812 15.0938 98.2656 15.875 99.1875C16.6562 100.109 17.9141 101 19.4375 101H82.5625C84.1094 101 85.5391 100.242 86.375 99.25C87.2109 98.2578 87.6172 97.1328 88.0625 96.0625C88.0859 96 88.1094 95.9375 88.125 95.875C88.125 95.875 89.8047 90.4141 91.5 84.875C92.3438 82.1094 93.2422 79.2969 93.875 77.1875C94.1953 76.1328 94.4375 75.2656 94.625 74.625C94.7188 74.3047 94.8203 74.0078 94.875 73.8125C94.8984 73.7109 94.9141 73.6406 94.9375 73.5625C94.9453 73.5234 94.9219 73.4922 94.9375 73.4375C94.9531 73.3828 95 73.4375 95 73V67H95.3125C98.4297 67 101 64.4297 101 61.3125V54.6875C101 51.5703 98.4297 49 95.3125 49H89V44.625C89 40.1172 86.8828 32.4062 84.3125 25.3125C83.0312 21.7656 81.6562 18.4062 80.25 15.875C80.0625 15.5391 79.875 15.25 79.6875 14.9375C81.5547 14.6094 83 12.9531 83 11V5C83 2.8125 81.1875 1 79 1H59ZM59 5H79V11H59V5ZM63.1875 15H74.6875C74.7422 15.0312 74.9062 15.1328 75.125 15.375C75.5625 15.8594 76.1328 16.7656 76.75 17.875C77.9844 20.0938 79.3281 23.2109 80.5625 26.625C83.0312 33.4531 85 41.5391 85 44.625V49H81C80.9766 48.9766 80.9609 48.9609 80.9375 48.9375L54.9375 34.25C56.1641 29.8047 57.8281 24.9688 59.5 21.1875C60.4219 19.1016 61.4062 17.3203 62.1875 16.1875C62.5781 15.625 62.9141 15.2422 63.125 15.0625C63.1797 15.0156 63.1641 15.0156 63.1875 15ZM30.25 32.5625C34.2031 32.5625 37.7969 33.9375 40.625 36.25L27.125 49H13.8125C14.3203 39.1328 21.4453 32.5625 30.25 32.5625ZM47.875 34.875L72.875 49H32.9375L47.875 34.875ZM6.6875 53H95.3125C96.2578 53 97 53.7422 97 54.6875V61.3125C97 62.2578 96.2578 63 95.3125 63H9.125C9.08594 63 9.03906 63 9 63H6.6875C5.74219 63 5 62.2578 5 61.3125V54.6875C5 53.7422 5.74219 53 6.6875 53ZM11 67H25V91C25 92.1016 25.8984 93 27 93H33C34.1016 93 35 92.1016 35 91V67H39V91C39 92.1016 39.8984 93 41 93H47C48.1016 93 49 92.1016 49 91V67H53V91C53 92.1016 53.8984 93 55 93H61C62.1016 93 63 92.1016 63 91V67H67V91C67 92.1016 67.8984 93 69 93H75C76.1016 93 77 92.1016 77 91V67H91V72.75C90.9531 72.9141 90.9062 73.1875 90.8125 73.5C90.6328 74.125 90.3203 75.0078 90 76.0625C89.3672 78.1641 88.5312 80.9219 87.6875 83.6875C86.0234 89.125 84.4297 94.3828 84.375 94.5625L84.3125 94.75C83.9297 95.6328 83.5703 96.3203 83.3125 96.625C83.0312 96.9609 83.0469 97 82.5625 97H19.4375C19.2891 97 19.3047 97 18.9375 96.5625C18.6016 96.1641 18.1172 95.3828 17.625 94.5C17.5547 94.2656 15.9688 89.1016 14.3125 83.6875C13.4688 80.9219 12.6328 78.1641 12 76.0625C11.6797 75.0078 11.3672 74.125 11.1875 73.5C11.0938 73.1875 11.0469 72.9141 11 72.75V67ZM29 67H31V89H29V67ZM43 67H45V89H43V67ZM57 67H59V89H57V67ZM71 67H73V89H71V67Z" stroke="white" stroke-width="0.2" mask="url(#path-1-outside-1_242_11)"/>
</svg>
