<svg width="28" height="31" viewBox="0 0 28 31" fill="none" xmlns="http://www.w3.org/2000/svg">
<path d="M2.18182 30H1.65202C1.32313 30 1.08382 29.6879 1.16913 29.3703L3.94869 19.0218C4.30074 17.7111 5.48886 16.8 6.846 16.8H12.3818C12.5529 16.8 12.645 16.5991 12.5333 16.4694L9.06407 12.4436C6.61391 9.60032 7.06631 5.28027 10.0523 3.00629V3.00629C12.3845 1.23028 15.6155 1.23028 17.9477 3.00629V3.00629C20.9337 5.28027 21.3861 9.60032 18.9359 12.4436L15.4667 16.4694C15.355 16.5991 15.4471 16.8 15.6182 16.8H21.154C22.5111 16.8 23.6993 17.7111 24.0513 19.0218L26.8309 29.3703C26.9162 29.6879 26.6769 30 26.348 30H25.8182M2.18182 30H14H25.8182M2.18182 30L2.5 27.5L10.4207 26.5464C11.1668 26.4565 11.7996 25.9561 12.0588 25.2508L13.9061 20.2256C13.9382 20.1383 14.0618 20.1383 14.0939 20.2256L15.9444 25.2596C16.202 25.9603 16.8284 26.4592 17.5689 26.5535L25 27.5L25.8182 30" stroke="white" stroke-width="2"/>
</svg>
