<svg width="17" height="18" viewBox="0 0 17 18" fill="none" xmlns="http://www.w3.org/2000/svg">
<path d="M1.68182 17H1.65509C1.32526 17 1.08579 16.6863 1.17279 16.3681L2.44148 11.7287C2.79812 10.4245 3.98313 9.52 5.33523 9.52H7.46669C7.60358 9.52 7.67665 9.35868 7.58637 9.25578L5.70068 7.10645C4.26893 5.47453 4.531 2.96881 6.26944 1.66846V1.66846C7.59196 0.679215 9.40804 0.679216 10.7306 1.66846V1.66846C12.469 2.96881 12.7311 5.47452 11.2993 7.10645L9.41363 9.25578C9.32335 9.35868 9.39642 9.52 9.53331 9.52H11.6648C13.0169 9.52 14.2019 10.4245 14.5585 11.7287L15.8272 16.3681C15.9142 16.6863 15.6747 17 15.3449 17H15.3182M1.68182 17H8.5H15.3182M1.68182 17L1.86538 15.8667L6.00477 15.1546C6.70553 15.0341 7.2896 14.5506 7.53884 13.8846L8.40634 11.5667C8.43875 11.4801 8.56125 11.4801 8.59366 11.5667L9.46565 13.8966C9.71248 14.5561 10.2879 15.0372 10.9807 15.1633L14.8462 15.8667L15.3182 17" stroke="black"/>
</svg>
