<svg width="52" height="44" viewBox="0 0 52 44" fill="none" xmlns="http://www.w3.org/2000/svg">
<path d="M50.5953 0.985134C50.1563 0.664287 49.5402 0.760738 49.2204 1.20067L39.9926 13.8594C39.6215 13.5336 39.1393 13.3958 38.6727 13.4667C38.659 13.1074 38.5251 12.763 38.2919 12.4845L42.1942 1.37684C42.3743 0.864078 42.1046 0.302103 41.5919 0.12298C41.0791 -0.0610644 40.5171 0.212541 40.337 0.725307L36.5006 11.644C36.3668 11.2887 36.1129 10.9806 35.7605 10.7877C35.3088 10.5397 34.7842 10.521 34.3315 10.7139C34.1917 10.2425 33.8433 9.84977 33.364 9.65982C32.8837 9.47282 32.3621 9.51809 31.9369 9.76513C31.7391 9.31535 31.3444 8.96891 30.8445 8.84195C30.3465 8.71302 29.8327 8.82621 29.442 9.1254C29.19 8.70318 28.754 8.40989 28.2423 8.34592C27.7275 8.27506 27.2364 8.45713 26.888 8.80259C26.2808 8.02803 24.9196 8.02803 24.3124 8.80259C23.963 8.45615 23.4689 8.27801 22.9562 8.34592C22.4444 8.40989 22.0103 8.70318 21.7574 9.1254C21.3677 8.82621 20.8569 8.71106 20.3549 8.84195C19.855 8.9699 19.4603 9.31535 19.2625 9.76513C18.8383 9.51711 18.3167 9.46987 17.8354 9.65982C17.6199 9.74544 17.4437 9.88225 17.2882 10.0377C16.0993 8.72779 14.5147 7.34007 12.8544 6.79778L11.9962 6.51532L11.6448 7.3509C11.5671 7.53593 10.2315 10.8064 11.073 14.005C10.9982 14.0877 10.9264 14.1733 10.8693 14.2718C10.698 14.565 10.6252 14.8997 10.6547 15.2304C10.1794 15.251 9.68234 15.4282 9.35362 15.8258C9.0249 16.2224 8.90876 16.7352 9.01407 17.2145C8.52492 17.2637 8.07318 17.5314 7.79761 17.9684C7.52006 18.4034 7.46888 18.925 7.63324 19.3886C7.15394 19.4978 6.7396 19.8206 6.52012 20.2881C6.30065 20.7546 6.31541 21.2792 6.53685 21.7182C6.28392 21.8107 6.05657 21.9652 5.87744 22.1719C5.82233 22.2358 5.77902 22.3067 5.73474 22.3776H3.33626C2.69456 22.3776 2.07452 22.6472 1.63458 23.1177C1.19071 23.5921 0.961396 24.2367 1.0047 24.8863C1.58734 33.495 7.0634 37.8176 15.1072 41.6579C16.0048 42.087 16.7469 42.8006 17.1957 43.6677C17.6346 44.516 17.5647 39.6105 17.0047 40.5415C16.5825 41.2422 16.5707 42.0847 16.9732 42.7973C17.3758 43.5108 18.1041 43.935 18.9219 43.935H32.1968C33.0146 43.935 33.7439 43.5098 34.1455 42.7973C34.548 42.0847 34.5362 41.2422 34.1041 40.5238C33.554 39.6095 33.4851 44.516 33.923 43.6686C34.3718 42.8006 35.1129 42.087 36.0115 41.6579C44.0543 37.8176 49.5304 33.495 50.113 24.8863C50.1563 24.2367 49.928 23.5931 49.4831 23.1177C49.0442 22.6472 48.4232 22.3776 47.7815 22.3776H45.4686C45.4243 22.3067 45.381 22.2358 45.3259 22.1719C45.1468 21.9652 44.9194 21.8107 44.6665 21.7182C44.8869 21.2792 44.9017 20.7546 44.6822 20.2881C44.4628 19.8206 44.0484 19.4978 43.5691 19.3886C43.7335 18.925 43.6823 18.4034 43.4057 17.9684C43.1292 17.5324 42.6784 17.2637 42.1893 17.2145C42.2936 16.7352 42.1784 16.2224 41.8497 15.8258C41.6972 15.6408 41.5043 15.5069 41.2966 15.4105L50.8088 2.36005C51.1317 1.9211 51.0342 1.30598 50.5953 0.985134ZM13.1467 9.07521C14.5196 9.85863 15.866 11.3044 16.739 12.4343C16.8817 12.6183 17.0156 12.8014 17.1376 12.9726C17.1435 12.9815 17.1514 12.9913 17.1573 13.0002C17.2852 13.1822 17.3974 13.3515 17.484 13.4942C17.8 14.0139 17.8354 14.5119 17.7153 14.942C17.5953 15.3711 17.3197 15.7333 17.0126 15.9823C16.3867 16.4921 15.3316 16.7844 14.4104 15.9232L14.372 15.8868L14.3336 15.8494C14.3307 15.8465 14.3287 15.8435 14.3258 15.8406C14.0768 15.5984 13.8593 15.3366 13.6713 15.0532C13.6634 15.0414 13.6555 15.0296 13.6477 15.0168C13.4646 14.7363 13.3111 14.4341 13.1831 14.1064C12.4755 12.2975 12.8278 10.2493 13.1467 9.07521ZM48.0462 24.4611C48.0885 24.5074 48.1594 24.6058 48.1496 24.7534C47.6289 32.435 42.7946 36.237 35.1631 39.8815C33.8807 40.4936 32.8197 41.5172 32.1741 42.7642C31.4232 44.2149 31.5167 40.0445 32.428 41.5562C32.495 41.6674 32.4674 41.7668 32.431 41.8288C32.3946 41.8908 32.3257 41.9666 32.1958 41.9666H18.9219C18.792 41.9666 18.7222 41.8918 18.6867 41.8288C18.6513 41.7658 18.6228 41.6674 18.7005 41.5385C19.601 40.0435 19.6945 44.2139 18.9436 42.7622C18.299 41.5162 17.237 40.4926 15.9556 39.8805C8.32317 36.237 3.48881 32.435 2.96817 24.7534C2.95832 24.6068 3.02919 24.5074 3.07151 24.4611C3.12072 24.408 3.20634 24.346 3.33527 24.346H5.61958H45.5838H47.7824C47.9114 24.346 47.997 24.408 48.0462 24.4611ZM40.0693 17.2991C39.9925 17.7273 40.09 18.176 40.3597 18.5461C40.6283 18.9171 41.024 19.1474 41.4551 19.2075C41.3261 19.6218 41.3665 20.0785 41.5869 20.48C41.8074 20.8806 42.1716 21.1601 42.5918 21.2743C42.4353 21.6158 42.4019 22.0046 42.5042 22.3786H8.7011C8.80345 22.0046 8.76999 21.6158 8.61449 21.2743C9.03375 21.1611 9.3979 20.8826 9.61836 20.48C9.83882 20.0795 9.88016 19.6228 9.75025 19.2075C10.1803 19.1474 10.577 18.9171 10.8457 18.5461C11.1153 18.176 11.2128 17.7273 11.136 17.2991C11.571 17.2932 11.9932 17.1141 12.3062 16.7805C12.3426 16.7411 12.3771 16.7007 12.4086 16.6594C12.5818 16.874 12.7688 17.0777 12.9676 17.2706L13.0404 17.3385L13.0788 17.3749C13.1329 17.4251 13.1939 17.4605 13.25 17.5078C13.3859 17.6219 13.5207 17.7371 13.6654 17.8306C13.752 17.8867 13.8455 17.9241 13.935 17.9723C14.0571 18.0383 14.1771 18.1091 14.3041 18.1613C14.4025 18.2016 14.5039 18.2233 14.6043 18.2548C14.7283 18.2932 14.8513 18.3375 14.9773 18.364C15.0806 18.3847 15.185 18.3886 15.2893 18.4004C15.4163 18.4152 15.5422 18.4349 15.6702 18.4369C15.6869 18.4369 15.7036 18.4418 15.7204 18.4418C15.8345 18.4418 15.9497 18.4221 16.0638 18.4113C16.1564 18.4024 16.2489 18.4024 16.3414 18.3867C16.4792 18.364 16.614 18.3227 16.7498 18.2843C16.8355 18.2607 16.9211 18.2459 17.0057 18.2164C17.1602 18.1613 17.3108 18.0865 17.4614 18.0117C17.5224 17.9812 17.5864 17.9605 17.6464 17.9261C17.8561 17.808 18.0598 17.6712 18.2547 17.5127C18.9859 16.9182 19.4455 16.1476 19.6355 15.3248C19.853 14.3849 19.7152 13.3771 19.167 12.4756C19.165 12.4717 19.1611 12.4667 19.1591 12.4628C19.0656 12.3103 18.9387 12.1174 18.7842 11.8959C18.7704 11.8762 18.7615 11.8605 18.7477 11.8408C19.1188 12.0209 19.5508 12.0553 19.9662 11.9215C20.4012 11.7798 20.7437 11.4747 20.9336 11.083C21.287 11.3339 21.7338 11.4373 22.1846 11.3507C22.6343 11.265 23.0123 11.0042 23.2495 10.6401C23.5703 10.9343 24.0033 11.1017 24.4571 11.0633C24.9147 11.0347 25.3222 10.8241 25.6036 10.4924C25.8841 10.8241 26.2916 11.0347 26.7483 11.0633C27.2039 11.0908 27.636 10.9343 27.9578 10.6401C28.195 11.0042 28.573 11.265 29.0227 11.3507C29.4715 11.4363 29.9193 11.3329 30.2736 11.083C30.4626 11.4737 30.8051 11.7788 31.2401 11.9205C31.6741 12.0632 32.1318 12.017 32.5156 11.8123C32.6554 12.2246 32.9565 12.5711 33.3709 12.7659C33.7843 12.9588 34.2429 12.9706 34.6494 12.8171C34.736 13.2433 34.9919 13.6242 35.3787 13.8692C35.4731 13.9293 35.5706 13.9775 35.6719 14.0159L33.9388 18.9486C33.7587 19.4614 34.0283 20.0234 34.5411 20.2025C34.6494 20.2409 34.7596 20.2586 34.8679 20.2586C35.2743 20.2586 35.6542 20.0057 35.7959 19.6002L37.3165 15.2717C37.6541 15.5177 38.0586 15.626 38.4572 15.5827C38.4513 15.7028 38.4611 15.8209 38.4818 15.939L35.8284 19.5795C35.5086 20.0185 35.605 20.6336 36.044 20.9534C36.2192 21.0814 36.4219 21.1424 36.6227 21.1424C36.9268 21.1424 37.226 21.0017 37.4189 20.7379L39.9355 17.2854C39.9788 17.2873 40.0231 17.2981 40.0693 17.2991Z" fill="white" stroke="white" stroke-width="0.1"/>
<path d="M25.2711 16.184L26.2553 15.1998C26.6401 14.815 26.6401 14.193 26.2553 13.8081C25.8705 13.4233 25.2484 13.4233 24.8636 13.8081L23.8794 14.7923C23.4946 15.1772 23.4946 15.7992 23.8794 16.184C24.0714 16.3759 24.3233 16.4724 24.5753 16.4724C24.8272 16.4724 25.0792 16.3759 25.2711 16.184Z" fill="white" stroke="white" stroke-width="0.1"/>
<path d="M21.3341 16.7608C20.9493 16.376 20.3272 16.376 19.9424 16.7608C19.5576 17.1456 19.5576 17.7676 19.9424 18.1524L20.9266 19.1366C21.1185 19.3285 21.3705 19.425 21.6224 19.425C21.8744 19.425 22.1263 19.3285 22.3183 19.1366C22.7031 18.7518 22.7031 18.1298 22.3183 17.745L21.3341 16.7608Z" fill="white" stroke="white" stroke-width="0.1"/>
<path d="M25.8475 18.7292L24.8633 19.7134C24.4785 20.0982 24.4785 20.7202 24.8633 21.105C25.0552 21.2969 25.3072 21.3934 25.5591 21.3934C25.8111 21.3934 26.0631 21.2969 26.255 21.105L27.2392 20.1208C27.624 19.736 27.624 19.114 27.2392 18.7292C26.8543 18.3443 26.2323 18.3443 25.8475 18.7292Z" fill="white" stroke="white" stroke-width="0.1"/>
<path d="M30.4804 17.4566C30.7323 17.4566 30.9843 17.3602 31.1762 17.1682C31.561 16.7834 31.561 16.1614 31.1762 15.7766L30.192 14.7924C29.8072 14.4076 29.1852 14.4076 28.8003 14.7924C28.4155 15.1772 28.4155 15.7992 28.8003 16.184L29.7845 17.1682C29.9764 17.3602 30.2284 17.4566 30.4804 17.4566Z" fill="white" stroke="white" stroke-width="0.1"/>
<path d="M30.7689 18.7292L29.7847 19.7134C29.3999 20.0982 29.3999 20.7202 29.7847 21.105C29.9766 21.2969 30.2286 21.3934 30.4805 21.3934C30.7325 21.3934 30.9844 21.2969 31.1764 21.105L32.1606 20.1208C32.5454 19.736 32.5454 19.114 32.1606 18.7292C31.7767 18.3443 31.1537 18.3443 30.7689 18.7292Z" fill="white" stroke="white" stroke-width="0.1"/>
<path d="M13.0531 18.7292L12.0689 19.7134C11.6841 20.0982 11.6841 20.7202 12.0689 21.105C12.2608 21.2969 12.5128 21.3934 12.7647 21.3934C13.0167 21.3934 13.2686 21.2969 13.4605 21.105L14.4447 20.1208C14.8296 19.736 14.8296 19.114 14.4447 18.7292C14.0599 18.3443 13.4379 18.3443 13.0531 18.7292Z" fill="white" stroke="white" stroke-width="0.1"/>
<path d="M18.67 19.425H17.6859C17.1426 19.425 16.7017 19.865 16.7017 20.4092C16.7017 20.9535 17.1426 21.3934 17.6859 21.3934H18.67C19.2133 21.3934 19.6542 20.9535 19.6542 20.4092C19.6542 19.865 19.2133 19.425 18.67 19.425Z" fill="white" stroke="white" stroke-width="0.1"/>
<path d="M22.1365 38.2261C18.307 36.7488 15.4332 35.1465 13.0908 33.185C12.6735 32.8356 12.0535 32.8908 11.7041 33.3071C11.3557 33.7244 11.4098 34.3454 11.8271 34.6938C14.3407 36.799 17.3907 38.5046 21.4279 40.0616C21.544 40.1069 21.6641 40.1275 21.7822 40.1275C22.1769 40.1275 22.5499 39.8884 22.7005 39.4977C22.8963 38.9918 22.6434 38.4219 22.1365 38.2261Z" fill="white" stroke="white" stroke-width="0.1"/>
<path d="M9.13799 28.0839C8.92147 27.5849 8.34178 27.3556 7.84378 27.5711C7.34479 27.7876 7.11547 28.3673 7.33101 28.8653C7.78472 29.9135 8.37721 30.9194 9.09173 31.8534C9.28562 32.1073 9.57793 32.2401 9.87417 32.2401C10.0828 32.2401 10.2934 32.1742 10.4716 32.0374C10.9027 31.7077 10.9853 31.0896 10.6556 30.6585C10.0385 29.8525 9.52773 28.9864 9.13799 28.0839Z" fill="white" stroke="white" stroke-width="0.1"/>
</svg>
