<svg width="94" height="50" viewBox="0 0 94 50" fill="none" xmlns="http://www.w3.org/2000/svg">
<path d="M93.5 15.3664C93.5 11.1689 92.6191 7.01805 90.9143 3.18228L89.5 0V26.5C89.5 28.1569 88.1569 29.5 86.5 29.5H72C70.3431 29.5 69 30.8431 69 32.5V47.782C69 48.0257 69.3532 48.0575 69.3968 47.8177L71.5521 35.9633C71.8115 34.5369 73.0539 33.5 74.5037 33.5H87.1404C88.525 33.5 89.7297 34.4476 90.0559 35.7932L93.1056 48.3732C93.1614 48.6033 93.5 48.5628 93.5 48.3261V33.5V15.3664Z" fill="#2A4064"/>
<path d="M0 15.3664C0 11.1689 0.880867 7.01805 2.58565 3.18228L4 0V26.5C4 28.1569 5.34315 29.5 7 29.5H21.5C23.1569 29.5 24.5 30.8431 24.5 32.5V47.782C24.5 48.0257 24.1468 48.0575 24.1032 47.8177L21.9479 35.9633C21.6885 34.5369 20.4461 33.5 18.9963 33.5H6.35962C4.97503 33.5 3.77028 34.4476 3.44407 35.7932L0.39437 48.3732C0.338603 48.6033 0 48.5628 0 48.3261V33.5V15.3664Z" fill="#2A4064"/>
<path d="M86.5 21.5H7V22.5C7 24.1569 8.34315 25.5 10 25.5H32.08C33.1528 25.5 34.0346 26.3465 34.0783 27.4184L34.8999 47.548C34.9099 47.7936 35.2684 47.8081 35.2983 47.5641L37.6773 28.1354C37.8615 26.6308 39.1392 25.5 40.6551 25.5H52.9501C54.4204 25.5 55.674 26.5655 55.9109 28.0166L59.1026 47.566C59.1422 47.8087 59.5 47.7797 59.5 47.5338V27.5C59.5 26.3954 60.3954 25.5 61.5 25.5H83.5C85.1569 25.5 86.5 24.1569 86.5 22.5V21.5Z" fill="black"/>
<path d="M17.4261 10.794V9.27273H24.5938V10.794H21.9219V18H20.098V10.794H17.4261ZM26.7159 18.1236C26.2983 18.1236 25.9261 18.0511 25.5994 17.9062C25.2727 17.7585 25.0142 17.5412 24.8239 17.2543C24.6364 16.9645 24.5426 16.6037 24.5426 16.1719C24.5426 15.8082 24.6094 15.5028 24.7429 15.2557C24.8764 15.0085 25.0582 14.8097 25.2884 14.6591C25.5185 14.5085 25.7798 14.3949 26.0724 14.3182C26.3679 14.2415 26.6776 14.1875 27.0014 14.1562C27.3821 14.1165 27.6889 14.0795 27.9219 14.0455C28.1548 14.0085 28.3239 13.9545 28.429 13.8835C28.5341 13.8125 28.5866 13.7074 28.5866 13.5682V13.5426C28.5866 13.2727 28.5014 13.0639 28.331 12.9162C28.1634 12.7685 27.9247 12.6946 27.6151 12.6946C27.2884 12.6946 27.0284 12.767 26.8352 12.9119C26.642 13.054 26.5142 13.233 26.4517 13.4489L24.7727 13.3125C24.858 12.9148 25.0256 12.571 25.2756 12.2812C25.5256 11.9886 25.848 11.7642 26.2429 11.608C26.6406 11.4489 27.1009 11.3693 27.6236 11.3693C27.9872 11.3693 28.3352 11.4119 28.6676 11.4972C29.0028 11.5824 29.2997 11.7145 29.5582 11.8935C29.8196 12.0724 30.0256 12.3026 30.1761 12.5838C30.3267 12.8622 30.402 13.196 30.402 13.5852V18H28.6804V17.0923H28.6293C28.5241 17.2969 28.3835 17.4773 28.2074 17.6335C28.0312 17.7869 27.8196 17.9077 27.5724 17.9957C27.3253 18.081 27.0398 18.1236 26.7159 18.1236ZM27.2358 16.8707C27.5028 16.8707 27.7386 16.8182 27.9432 16.7131C28.1477 16.6051 28.3082 16.4602 28.4247 16.2784C28.5412 16.0966 28.5994 15.8906 28.5994 15.6605V14.9659C28.5426 15.0028 28.4645 15.0369 28.3651 15.0682C28.2685 15.0966 28.1591 15.1236 28.0369 15.1491C27.9148 15.1719 27.7926 15.1932 27.6705 15.2131C27.5483 15.2301 27.4375 15.2457 27.3381 15.2599C27.125 15.2912 26.9389 15.3409 26.7798 15.4091C26.6207 15.4773 26.4972 15.5696 26.4091 15.6861C26.321 15.7997 26.277 15.9418 26.277 16.1122C26.277 16.3594 26.3665 16.5483 26.5455 16.679C26.7273 16.8068 26.9574 16.8707 27.2358 16.8707ZM31.8445 18V9.27273H33.6598V12.554H33.7152C33.7947 12.3778 33.9098 12.1989 34.0604 12.017C34.2138 11.8324 34.4126 11.679 34.657 11.5568C34.9041 11.4318 35.2109 11.3693 35.5774 11.3693C36.0547 11.3693 36.495 11.4943 36.8984 11.7443C37.3018 11.9915 37.6243 12.3651 37.8658 12.8651C38.1072 13.3622 38.228 13.9858 38.228 14.7358C38.228 15.4659 38.1101 16.0824 37.8743 16.5852C37.6413 17.0852 37.3232 17.4645 36.9197 17.723C36.5192 17.9787 36.0703 18.1065 35.5732 18.1065C35.2209 18.1065 34.9212 18.0483 34.674 17.9318C34.4297 17.8153 34.2294 17.669 34.0732 17.4929C33.9169 17.3139 33.7976 17.1335 33.7152 16.9517H33.6342V18H31.8445ZM33.6214 14.7273C33.6214 15.1165 33.6754 15.456 33.7834 15.7457C33.8913 16.0355 34.0476 16.2614 34.2521 16.4233C34.4567 16.5824 34.7053 16.6619 34.9979 16.6619C35.2933 16.6619 35.5433 16.581 35.7479 16.419C35.9524 16.2543 36.1072 16.027 36.2124 15.7372C36.3203 15.4446 36.3743 15.108 36.3743 14.7273C36.3743 14.3494 36.3217 14.017 36.2166 13.7301C36.1115 13.4432 35.9567 13.2187 35.7521 13.0568C35.5476 12.8949 35.2962 12.8139 34.9979 12.8139C34.7024 12.8139 34.4524 12.892 34.2479 13.0483C34.0462 13.2045 33.8913 13.4261 33.7834 13.7131C33.6754 14 33.6214 14.3381 33.6214 14.7273ZM41.2546 9.27273V18H39.4393V9.27273H41.2546ZM45.6918 18.1278C45.0185 18.1278 44.4389 17.9915 43.9531 17.7188C43.4702 17.4432 43.098 17.054 42.8366 16.5511C42.5753 16.0455 42.4446 15.4474 42.4446 14.7571C42.4446 14.0838 42.5753 13.4929 42.8366 12.9844C43.098 12.4759 43.4659 12.0795 43.9403 11.7955C44.4176 11.5114 44.9773 11.3693 45.6193 11.3693C46.0511 11.3693 46.4531 11.4389 46.8253 11.5781C47.2003 11.7145 47.527 11.9205 47.8054 12.196C48.0866 12.4716 48.3054 12.8182 48.4616 13.2358C48.6179 13.6506 48.696 14.1364 48.696 14.6932V15.1918H43.169V14.0668H46.9872C46.9872 13.8054 46.9304 13.5739 46.8168 13.3722C46.7031 13.1705 46.5455 13.0128 46.3438 12.8991C46.1449 12.7827 45.9134 12.7244 45.6491 12.7244C45.3736 12.7244 45.1293 12.7884 44.9162 12.9162C44.706 13.0412 44.5412 13.2102 44.4219 13.4233C44.3026 13.6335 44.2415 13.8679 44.2386 14.1264V15.196C44.2386 15.5199 44.2983 15.7997 44.4176 16.0355C44.5398 16.2713 44.7116 16.4531 44.9332 16.581C45.1548 16.7088 45.4176 16.7727 45.7216 16.7727C45.9233 16.7727 46.108 16.7443 46.2756 16.6875C46.4432 16.6307 46.5866 16.5455 46.706 16.4318C46.8253 16.3182 46.9162 16.179 46.9787 16.0142L48.6577 16.125C48.5724 16.5284 48.3977 16.8807 48.1335 17.1818C47.8722 17.4801 47.5341 17.7131 47.1193 17.8807C46.7074 18.0455 46.2315 18.1278 45.6918 18.1278ZM59.9918 9.27273V18H58.3981L54.6012 12.5071H54.5373V18H52.6921V9.27273H54.3114L58.0785 14.7614H58.1552V9.27273H59.9918ZM64.4396 18.1278C63.7777 18.1278 63.2053 17.9872 62.7223 17.706C62.2422 17.4219 61.8714 17.027 61.6101 16.5213C61.3487 16.0128 61.218 15.4233 61.218 14.7528C61.218 14.0767 61.3487 13.4858 61.6101 12.9801C61.8714 12.4716 62.2422 12.0767 62.7223 11.7955C63.2053 11.5114 63.7777 11.3693 64.4396 11.3693C65.1016 11.3693 65.6726 11.5114 66.1527 11.7955C66.6357 12.0767 67.0078 12.4716 67.2692 12.9801C67.5305 13.4858 67.6612 14.0767 67.6612 14.7528C67.6612 15.4233 67.5305 16.0128 67.2692 16.5213C67.0078 17.027 66.6357 17.4219 66.1527 17.706C65.6726 17.9872 65.1016 18.1278 64.4396 18.1278ZM64.4482 16.7216C64.7493 16.7216 65.0007 16.6364 65.2024 16.4659C65.4041 16.2926 65.5561 16.0568 65.6584 15.7585C65.7635 15.4602 65.8161 15.1207 65.8161 14.7401C65.8161 14.3594 65.7635 14.0199 65.6584 13.7216C65.5561 13.4233 65.4041 13.1875 65.2024 13.0142C65.0007 12.8409 64.7493 12.7543 64.4482 12.7543C64.1442 12.7543 63.8885 12.8409 63.6811 13.0142C63.4766 13.1875 63.3217 13.4233 63.2166 13.7216C63.1143 14.0199 63.0632 14.3594 63.0632 14.7401C63.0632 15.1207 63.1143 15.4602 63.2166 15.7585C63.3217 16.0568 63.4766 16.2926 63.6811 16.4659C63.8885 16.6364 64.1442 16.7216 64.4482 16.7216ZM75.3988 9.27273V18H73.5536V11.0241H73.5025L71.5039 12.277V10.6406L73.6644 9.27273H75.3988Z" fill="black"/>
</svg>
