<svg width="94" height="50" viewBox="0 0 94 50" fill="none" xmlns="http://www.w3.org/2000/svg">
<path d="M93.5 15.3664C93.5 11.1689 92.6191 7.01805 90.9143 3.18228L89.5 0V26.5C89.5 28.1569 88.1569 29.5 86.5 29.5H72C70.3431 29.5 69 30.8431 69 32.5V47.782C69 48.0257 69.3532 48.0575 69.3968 47.8177L71.5521 35.9633C71.8115 34.5369 73.0539 33.5 74.5037 33.5H87.1404C88.525 33.5 89.7297 34.4476 90.0559 35.7932L93.1056 48.3732C93.1614 48.6033 93.5 48.5628 93.5 48.3261V33.5V15.3664Z" fill="#2A4064"/>
<path d="M0 15.3664C0 11.1689 0.880867 7.01805 2.58565 3.18228L4 0V26.5C4 28.1569 5.34315 29.5 7 29.5H21.5C23.1569 29.5 24.5 30.8431 24.5 32.5V47.782C24.5 48.0257 24.1468 48.0575 24.1032 47.8177L21.9479 35.9633C21.6885 34.5369 20.4461 33.5 18.9963 33.5H6.35962C4.97503 33.5 3.77028 34.4476 3.44407 35.7932L0.39437 48.3732C0.338603 48.6033 0 48.5628 0 48.3261V33.5V15.3664Z" fill="#2A4064"/>
<path d="M86.5 21.5H7V22.5C7 24.1569 8.34315 25.5 10 25.5H32.08C33.1528 25.5 34.0346 26.3465 34.0783 27.4184L34.8999 47.548C34.9099 47.7936 35.2684 47.8081 35.2983 47.5641L37.6773 28.1354C37.8615 26.6308 39.1392 25.5 40.6551 25.5H52.9501C54.4204 25.5 55.674 26.5655 55.9109 28.0166L59.1026 47.566C59.1422 47.8087 59.5 47.7797 59.5 47.5338V27.5C59.5 26.3954 60.3954 25.5 61.5 25.5H83.5C85.1569 25.5 86.5 24.1569 86.5 22.5V21.5Z" fill="black"/>
<path d="M16.4261 10.794V9.27273H23.5938V10.794H20.9219V18H19.098V10.794H16.4261ZM25.7159 18.1236C25.2983 18.1236 24.9261 18.0511 24.5994 17.9062C24.2727 17.7585 24.0142 17.5412 23.8239 17.2543C23.6364 16.9645 23.5426 16.6037 23.5426 16.1719C23.5426 15.8082 23.6094 15.5028 23.7429 15.2557C23.8764 15.0085 24.0582 14.8097 24.2884 14.6591C24.5185 14.5085 24.7798 14.3949 25.0724 14.3182C25.3679 14.2415 25.6776 14.1875 26.0014 14.1562C26.3821 14.1165 26.6889 14.0795 26.9219 14.0455C27.1548 14.0085 27.3239 13.9545 27.429 13.8835C27.5341 13.8125 27.5866 13.7074 27.5866 13.5682V13.5426C27.5866 13.2727 27.5014 13.0639 27.331 12.9162C27.1634 12.7685 26.9247 12.6946 26.6151 12.6946C26.2884 12.6946 26.0284 12.767 25.8352 12.9119C25.642 13.054 25.5142 13.233 25.4517 13.4489L23.7727 13.3125C23.858 12.9148 24.0256 12.571 24.2756 12.2812C24.5256 11.9886 24.848 11.7642 25.2429 11.608C25.6406 11.4489 26.1009 11.3693 26.6236 11.3693C26.9872 11.3693 27.3352 11.4119 27.6676 11.4972C28.0028 11.5824 28.2997 11.7145 28.5582 11.8935C28.8196 12.0724 29.0256 12.3026 29.1761 12.5838C29.3267 12.8622 29.402 13.196 29.402 13.5852V18H27.6804V17.0923H27.6293C27.5241 17.2969 27.3835 17.4773 27.2074 17.6335C27.0312 17.7869 26.8196 17.9077 26.5724 17.9957C26.3253 18.081 26.0398 18.1236 25.7159 18.1236ZM26.2358 16.8707C26.5028 16.8707 26.7386 16.8182 26.9432 16.7131C27.1477 16.6051 27.3082 16.4602 27.4247 16.2784C27.5412 16.0966 27.5994 15.8906 27.5994 15.6605V14.9659C27.5426 15.0028 27.4645 15.0369 27.3651 15.0682C27.2685 15.0966 27.1591 15.1236 27.0369 15.1491C26.9148 15.1719 26.7926 15.1932 26.6705 15.2131C26.5483 15.2301 26.4375 15.2457 26.3381 15.2599C26.125 15.2912 25.9389 15.3409 25.7798 15.4091C25.6207 15.4773 25.4972 15.5696 25.4091 15.6861C25.321 15.7997 25.277 15.9418 25.277 16.1122C25.277 16.3594 25.3665 16.5483 25.5455 16.679C25.7273 16.8068 25.9574 16.8707 26.2358 16.8707ZM30.8445 18V9.27273H32.6598V12.554H32.7152C32.7947 12.3778 32.9098 12.1989 33.0604 12.017C33.2138 11.8324 33.4126 11.679 33.657 11.5568C33.9041 11.4318 34.2109 11.3693 34.5774 11.3693C35.0547 11.3693 35.495 11.4943 35.8984 11.7443C36.3018 11.9915 36.6243 12.3651 36.8658 12.8651C37.1072 13.3622 37.228 13.9858 37.228 14.7358C37.228 15.4659 37.1101 16.0824 36.8743 16.5852C36.6413 17.0852 36.3232 17.4645 35.9197 17.723C35.5192 17.9787 35.0703 18.1065 34.5732 18.1065C34.2209 18.1065 33.9212 18.0483 33.674 17.9318C33.4297 17.8153 33.2294 17.669 33.0732 17.4929C32.9169 17.3139 32.7976 17.1335 32.7152 16.9517H32.6342V18H30.8445ZM32.6214 14.7273C32.6214 15.1165 32.6754 15.456 32.7834 15.7457C32.8913 16.0355 33.0476 16.2614 33.2521 16.4233C33.4567 16.5824 33.7053 16.6619 33.9979 16.6619C34.2933 16.6619 34.5433 16.581 34.7479 16.419C34.9524 16.2543 35.1072 16.027 35.2124 15.7372C35.3203 15.4446 35.3743 15.108 35.3743 14.7273C35.3743 14.3494 35.3217 14.017 35.2166 13.7301C35.1115 13.4432 34.9567 13.2187 34.7521 13.0568C34.5476 12.8949 34.2962 12.8139 33.9979 12.8139C33.7024 12.8139 33.4524 12.892 33.2479 13.0483C33.0462 13.2045 32.8913 13.4261 32.7834 13.7131C32.6754 14 32.6214 14.3381 32.6214 14.7273ZM40.2546 9.27273V18H38.4393V9.27273H40.2546ZM44.6918 18.1278C44.0185 18.1278 43.4389 17.9915 42.9531 17.7188C42.4702 17.4432 42.098 17.054 41.8366 16.5511C41.5753 16.0455 41.4446 15.4474 41.4446 14.7571C41.4446 14.0838 41.5753 13.4929 41.8366 12.9844C42.098 12.4759 42.4659 12.0795 42.9403 11.7955C43.4176 11.5114 43.9773 11.3693 44.6193 11.3693C45.0511 11.3693 45.4531 11.4389 45.8253 11.5781C46.2003 11.7145 46.527 11.9205 46.8054 12.196C47.0866 12.4716 47.3054 12.8182 47.4616 13.2358C47.6179 13.6506 47.696 14.1364 47.696 14.6932V15.1918H42.169V14.0668H45.9872C45.9872 13.8054 45.9304 13.5739 45.8168 13.3722C45.7031 13.1705 45.5455 13.0128 45.3438 12.8991C45.1449 12.7827 44.9134 12.7244 44.6491 12.7244C44.3736 12.7244 44.1293 12.7884 43.9162 12.9162C43.706 13.0412 43.5412 13.2102 43.4219 13.4233C43.3026 13.6335 43.2415 13.8679 43.2386 14.1264V15.196C43.2386 15.5199 43.2983 15.7997 43.4176 16.0355C43.5398 16.2713 43.7116 16.4531 43.9332 16.581C44.1548 16.7088 44.4176 16.7727 44.7216 16.7727C44.9233 16.7727 45.108 16.7443 45.2756 16.6875C45.4432 16.6307 45.5866 16.5455 45.706 16.4318C45.8253 16.3182 45.9162 16.179 45.9787 16.0142L47.6577 16.125C47.5724 16.5284 47.3977 16.8807 47.1335 17.1818C46.8722 17.4801 46.5341 17.7131 46.1193 17.8807C45.7074 18.0455 45.2315 18.1278 44.6918 18.1278ZM58.9918 9.27273V18H57.3981L53.6012 12.5071H53.5373V18H51.6921V9.27273H53.3114L57.0785 14.7614H57.1552V9.27273H58.9918ZM63.4396 18.1278C62.7777 18.1278 62.2053 17.9872 61.7223 17.706C61.2422 17.4219 60.8714 17.027 60.6101 16.5213C60.3487 16.0128 60.218 15.4233 60.218 14.7528C60.218 14.0767 60.3487 13.4858 60.6101 12.9801C60.8714 12.4716 61.2422 12.0767 61.7223 11.7955C62.2053 11.5114 62.7777 11.3693 63.4396 11.3693C64.1016 11.3693 64.6726 11.5114 65.1527 11.7955C65.6357 12.0767 66.0078 12.4716 66.2692 12.9801C66.5305 13.4858 66.6612 14.0767 66.6612 14.7528C66.6612 15.4233 66.5305 16.0128 66.2692 16.5213C66.0078 17.027 65.6357 17.4219 65.1527 17.706C64.6726 17.9872 64.1016 18.1278 63.4396 18.1278ZM63.4482 16.7216C63.7493 16.7216 64.0007 16.6364 64.2024 16.4659C64.4041 16.2926 64.5561 16.0568 64.6584 15.7585C64.7635 15.4602 64.8161 15.1207 64.8161 14.7401C64.8161 14.3594 64.7635 14.0199 64.6584 13.7216C64.5561 13.4233 64.4041 13.1875 64.2024 13.0142C64.0007 12.8409 63.7493 12.7543 63.4482 12.7543C63.1442 12.7543 62.8885 12.8409 62.6811 13.0142C62.4766 13.1875 62.3217 13.4233 62.2166 13.7216C62.1143 14.0199 62.0632 14.3594 62.0632 14.7401C62.0632 15.1207 62.1143 15.4602 62.2166 15.7585C62.3217 16.0568 62.4766 16.2926 62.6811 16.4659C62.8885 16.6364 63.1442 16.7216 63.4482 16.7216ZM73.8278 18.1193C73.1914 18.1193 72.6246 18.0099 72.1275 17.7912C71.6332 17.5696 71.2425 17.2656 70.9556 16.8793C70.6715 16.4901 70.5252 16.0412 70.5167 15.5327H72.3746C72.386 15.7457 72.4556 15.9332 72.5835 16.0952C72.7141 16.2543 72.8874 16.3778 73.1033 16.4659C73.3192 16.554 73.5621 16.598 73.832 16.598C74.1133 16.598 74.3619 16.5483 74.5778 16.4489C74.7937 16.3494 74.9627 16.2116 75.0849 16.0355C75.207 15.8594 75.2681 15.6562 75.2681 15.4261C75.2681 15.1932 75.2028 14.9872 75.0721 14.8082C74.9442 14.6264 74.7596 14.4844 74.5181 14.3821C74.2795 14.2798 73.9954 14.2287 73.6658 14.2287H72.8519V12.8736H73.6658C73.9442 12.8736 74.19 12.8253 74.4031 12.7287C74.619 12.6321 74.7866 12.4986 74.9059 12.3281C75.0252 12.1548 75.0849 11.9531 75.0849 11.723C75.0849 11.5043 75.0323 11.3125 74.9272 11.1477C74.8249 10.9801 74.68 10.8494 74.4925 10.7557C74.3079 10.6619 74.092 10.6151 73.8448 10.6151C73.5948 10.6151 73.3661 10.6605 73.1587 10.7514C72.9513 10.8395 72.7852 10.9659 72.6602 11.1307C72.5352 11.2955 72.4684 11.4886 72.4599 11.7102H70.6914C70.6999 11.2074 70.8434 10.7642 71.1218 10.3807C71.4002 9.99716 71.7752 9.69744 72.2468 9.48153C72.7212 9.26278 73.2567 9.15341 73.8533 9.15341C74.4556 9.15341 74.9826 9.26278 75.4343 9.48153C75.886 9.70028 76.2369 9.99574 76.4869 10.3679C76.7397 10.7372 76.8647 11.152 76.8619 11.6122C76.8647 12.1009 76.7127 12.5085 76.4059 12.8352C76.1019 13.1619 75.7056 13.3693 75.217 13.4574V13.5256C75.859 13.608 76.3477 13.831 76.6829 14.1946C77.021 14.5554 77.1886 15.0071 77.1857 15.5497C77.1886 16.0469 77.0451 16.4886 76.7553 16.875C76.4684 17.2614 76.0721 17.5653 75.5664 17.7869C75.0607 18.0085 74.4812 18.1193 73.8278 18.1193Z" fill="black"/>
</svg>
