<svg width="98" height="102" viewBox="0 0 98 102" fill="none" xmlns="http://www.w3.org/2000/svg">
<path d="M51.7543 35.3474C51.8554 35.456 51.9778 35.5427 52.1139 35.602C52.2499 35.6613 52.3967 35.6921 52.5451 35.6923C52.663 35.6914 52.7801 35.6721 52.8921 35.6352C53.09 35.5714 53.2653 35.4519 53.397 35.291C53.5287 35.1301 53.6112 34.9346 53.6345 34.728C54.0739 31.1257 53.9882 30.8687 53.9201 30.66C53.6985 30.0372 53.2421 29.5258 52.6485 29.2349C52.0549 28.9441 51.3711 28.8968 50.7431 29.1033C50.1151 29.3097 49.5928 29.7535 49.2876 30.3399C48.9824 30.9263 48.9185 31.6087 49.1097 32.2415C49.1778 32.4502 49.2634 32.7094 51.7543 35.3474ZM50.6275 31.0027C50.6856 30.8858 50.7664 30.7817 50.8652 30.6965C50.9641 30.6113 51.0789 30.5466 51.203 30.5062C51.4439 30.4273 51.7059 30.4431 51.9356 30.5504C52.1653 30.6577 52.3456 30.8485 52.4396 31.0839C52.4396 31.3212 52.3913 32.0965 52.22 33.5968C51.192 32.4985 50.6824 31.901 50.5528 31.7034C50.4901 31.4686 50.5167 31.2189 50.6275 31.0027Z" fill="white" stroke="white" stroke-width="0.1"/>
<path d="M22.0657 30.4337C22.1542 30.4593 22.2461 30.4704 22.3381 30.4667C22.7027 30.4667 23.566 30.3634 26.1052 29.8846C26.3082 29.8444 26.4958 29.7477 26.6462 29.6056C26.7967 29.4635 26.904 29.2817 26.9556 29.0813C27.0073 28.8809 27.0012 28.6699 26.9382 28.4728C26.8752 28.2756 26.7577 28.1003 26.5994 27.967C23.8032 25.654 23.5396 25.5859 23.3287 25.531C22.6867 25.3869 22.0138 25.4982 21.4525 25.8415C20.8911 26.1848 20.4854 26.7331 20.3213 27.3703C20.1571 28.0075 20.2474 28.6835 20.573 29.2553C20.8986 29.8271 21.434 30.2498 22.0657 30.4337ZM21.7406 27.7232C21.7961 27.5095 21.9208 27.3203 22.0953 27.1852C22.2698 27.05 22.4842 26.9766 22.7049 26.9764C22.7684 26.9765 22.8317 26.9831 22.8938 26.9961C23.0981 27.1169 23.7219 27.5826 24.8905 28.5337C23.4056 28.8017 22.6368 28.9071 22.3974 28.9159C22.1569 28.8378 21.9551 28.671 21.8331 28.4495C21.7111 28.2279 21.678 27.9682 21.7406 27.7232Z" fill="white" stroke="white" stroke-width="0.1"/>
<path d="M21.598 48.0258C22.0034 48.0258 22.4028 47.9278 22.7622 47.7403C22.9577 47.6392 23.2015 47.5206 25.3981 44.6278C25.5225 44.4621 25.5976 44.2645 25.6145 44.058C25.6315 43.8514 25.5896 43.6443 25.4938 43.4605C25.398 43.2767 25.2522 43.1238 25.0732 43.0194C24.8941 42.915 24.6892 42.8634 24.4821 42.8705C20.8556 43.0221 20.6162 43.1473 20.4207 43.2483C19.9182 43.5108 19.5183 43.9343 19.285 44.4509C19.0517 44.9676 18.9984 45.5476 19.1339 46.0981C19.2693 46.6486 19.5855 47.1378 20.0318 47.4873C20.4782 47.8368 21.0289 48.0264 21.5958 48.0258H21.598ZM20.6425 45.1945C20.7165 44.9625 20.8728 44.7656 21.0818 44.6409C21.3147 44.5948 22.0879 44.5245 23.5969 44.4498C22.6721 45.6426 22.1691 46.2378 21.9978 46.4026C21.8227 46.4809 21.6287 46.507 21.4391 46.4777C21.2495 46.4483 21.0724 46.3648 20.9292 46.2371C20.786 46.1095 20.6827 45.9431 20.6319 45.7581C20.581 45.5732 20.5847 45.3774 20.6425 45.1945Z" fill="white" stroke="white" stroke-width="0.1"/>
<path d="M76.2918 49.5282C76.5067 49.9394 76.8302 50.2837 77.2271 50.5239C77.6241 50.764 78.0793 50.8906 78.5432 50.8901C78.9489 50.8903 79.3485 50.7915 79.7074 50.6023C79.9007 50.5013 80.1467 50.3827 82.3433 47.492C82.4677 47.3263 82.5428 47.1288 82.5597 46.9222C82.5767 46.7157 82.5348 46.5085 82.439 46.3248C82.3432 46.141 82.1974 45.9881 82.0184 45.8837C81.8393 45.7793 81.6344 45.7276 81.4273 45.7348C77.803 45.8841 77.5614 46.0115 77.3659 46.1126C76.7711 46.4237 76.324 46.958 76.1226 47.5983C75.9212 48.2386 75.9821 48.9327 76.2918 49.5282ZM78.027 47.5052C78.2599 47.4591 79.0331 47.3888 80.5421 47.3141C79.6173 48.5068 79.1143 49.0999 78.943 49.2668C78.7134 49.3608 78.457 49.3656 78.2241 49.2803C77.9912 49.195 77.7985 49.0258 77.6838 48.8058C77.5692 48.5859 77.5408 48.331 77.6043 48.0912C77.6678 47.8514 77.8186 47.644 78.027 47.5096V47.5052Z" fill="white" stroke="white" stroke-width="0.1"/>
<path d="M39.0054 39.5317C38.864 39.6844 38.7698 39.8746 38.7339 40.0796C38.6981 40.2845 38.7222 40.4955 38.8033 40.6871C40.1915 44.039 40.3936 44.2235 40.5605 44.3707C41.0255 44.7956 41.6329 45.0307 42.2628 45.0296H42.388C42.8865 45.0047 43.3664 44.833 43.7676 44.5361C44.1688 44.2393 44.4733 43.8305 44.643 43.3612C44.8127 42.8919 44.8399 42.3829 44.7212 41.8981C44.6026 41.4134 44.3434 40.9745 43.9761 40.6365C43.8158 40.4894 43.6137 40.3071 40.1476 39.233C39.9487 39.1669 39.7349 39.1599 39.5322 39.213C39.3294 39.266 39.1464 39.3767 39.0054 39.5317ZM42.9723 41.8073C43.1056 41.944 43.1967 42.1162 43.2346 42.3033C43.2726 42.4904 43.2558 42.6844 43.1862 42.8622C43.1167 43.04 42.9974 43.194 42.8426 43.3057C42.6877 43.4174 42.504 43.4821 42.3134 43.4921C42.0697 43.5053 41.83 43.4269 41.6412 43.2724C41.5182 43.0703 41.1865 42.3674 40.5979 40.977C42.03 41.4361 42.7593 41.7019 42.9723 41.8073Z" fill="white" stroke="white" stroke-width="0.1"/>
<path d="M37.6789 26.8862H37.6899C37.8969 26.887 38.0998 26.8285 38.2746 26.7175C38.4494 26.6066 38.5888 26.4479 38.6761 26.2601C40.251 22.9917 40.2532 22.7193 40.2554 22.5018C40.2619 21.8303 40.0016 21.1837 39.5317 20.7039C39.0618 20.2241 38.4207 19.9504 37.7492 19.9429H37.725C37.0579 19.9428 36.4176 20.206 35.9434 20.6753C35.4692 21.1446 35.1993 21.782 35.1924 22.4491C35.1924 22.6688 35.1924 22.9412 36.6948 26.2404C36.7791 26.4314 36.9169 26.5941 37.0914 26.7086C37.266 26.8232 37.47 26.8849 37.6789 26.8862ZM37.725 21.487C37.9783 21.49 38.221 21.5893 38.4038 21.7648C38.5865 21.9402 38.6957 22.1786 38.7091 22.4316C38.6388 22.6512 38.3378 23.3761 37.6921 24.7401C37.0748 23.3629 36.7893 22.6402 36.7234 22.4118C36.7418 22.1593 36.8555 21.9233 37.0415 21.7515C37.2275 21.5798 37.4719 21.4853 37.725 21.487Z" fill="white" stroke="white" stroke-width="0.1"/>
<path d="M74.1525 34.1152H74.1635C74.3695 34.1165 74.5717 34.0592 74.7463 33.9499C74.921 33.8406 75.0609 33.6838 75.1497 33.4979C76.7247 30.2273 76.7269 29.9549 76.7291 29.7374C76.7355 29.0659 76.4752 28.4193 76.0053 27.9395C75.5354 27.4597 74.8943 27.186 74.2228 27.1785H74.1964C73.5298 27.1796 72.8905 27.4432 72.4169 27.9123C71.9433 28.3814 71.6735 29.0182 71.666 29.6847C71.666 29.9044 71.666 30.1768 73.1685 33.476C73.2537 33.6658 73.3919 33.827 73.5664 33.9404C73.7409 34.0538 73.9444 34.1144 74.1525 34.1152ZM74.2074 28.716C74.4607 28.719 74.7034 28.8183 74.8862 28.9938C75.0689 29.1692 75.1781 29.4076 75.1915 29.6606C75.1212 29.8802 74.8203 30.6051 74.1745 31.9691C73.5572 30.5919 73.2695 29.8692 73.2058 29.6408C73.2242 29.3883 73.3379 29.1523 73.5239 28.9805C73.7099 28.8088 73.9543 28.7143 74.2074 28.716Z" fill="white" stroke="white" stroke-width="0.1"/>
<path d="M61.7686 44.2719C61.9494 44.3736 62.1553 44.422 62.3625 44.4115C62.5697 44.401 62.7697 44.332 62.9393 44.2126C65.9025 42.1171 66.0364 41.8799 66.1441 41.6909C66.4758 41.1069 66.562 40.415 66.3836 39.7675C66.2053 39.1199 65.777 38.5698 65.193 38.238C64.9037 38.0735 64.5849 37.9677 64.2547 37.9266C63.9245 37.8855 63.5895 37.9099 63.2688 37.9985C62.948 38.087 62.6479 38.238 62.3856 38.4426C62.1233 38.6473 61.9039 38.9017 61.74 39.1913C61.6324 39.3802 61.4984 39.6174 61.2172 43.2351C61.1997 43.4427 61.2424 43.6508 61.3402 43.8347C61.4379 44.0186 61.5867 44.1704 61.7686 44.2719ZM63.1084 39.8986C63.2479 39.689 63.4615 39.5401 63.7064 39.4818C63.9512 39.4235 64.209 39.4601 64.428 39.5843C64.6469 39.7085 64.8106 39.9111 64.8861 40.1512C64.9616 40.3913 64.9433 40.6511 64.8349 40.8782C64.6636 41.043 64.053 41.524 62.8273 42.4048C62.9569 40.8936 63.0535 40.1226 63.1084 39.892V39.8986Z" fill="white" stroke="white" stroke-width="0.1"/>
<path d="M54.7217 20.8325C54.8842 20.9775 55.0885 21.1576 58.5722 22.1724C58.7719 22.2306 58.984 22.231 59.1838 22.1734C59.3837 22.1158 59.5631 22.0027 59.7012 21.8471C59.8392 21.6916 59.9303 21.5 59.9637 21.2947C59.9972 21.0894 59.9717 20.8789 59.8901 20.6875C58.447 17.3598 58.2427 17.1731 58.078 17.0347C57.5748 16.5901 56.9158 16.3635 56.2456 16.4047C55.5755 16.4459 54.9491 16.7515 54.5042 17.2543C54.2835 17.5036 54.1141 17.7938 54.0056 18.1085C53.8971 18.4232 53.8517 18.7562 53.8719 19.0885C53.892 19.4207 53.9775 19.7457 54.1233 20.045C54.2691 20.3442 54.4724 20.6118 54.7217 20.8325ZM55.6486 18.2757C55.8164 18.0861 56.0501 17.9675 56.3022 17.9438C56.5542 17.9201 56.8059 17.9933 57.0061 18.1483C57.1335 18.3504 57.4783 19.0467 58.089 20.4283C56.6436 19.989 55.91 19.7386 55.6947 19.6398C55.5151 19.4609 55.4103 19.2203 55.4018 18.9669C55.3932 18.7135 55.4814 18.4664 55.6486 18.2757Z" fill="white" stroke="white" stroke-width="0.1"/>
<path d="M90.3081 84.1019H88.7353C90.3762 82.393 91.8105 80.3106 91.8105 76.9587C91.811 76.3296 91.7603 75.7015 91.6589 75.0807C95.2239 74.6897 97.3304 71.0302 97.3304 67.4828C97.3304 63.4895 94.7363 60.7021 91.0241 60.7021H89.6733V56.689C90.9409 56.2023 92.0672 55.4073 92.9505 54.376C93.7078 53.4886 94.2628 52.4469 94.5769 51.3234C94.891 50.1998 94.9566 49.0213 94.7693 47.8698C92.4695 33.757 83.591 21.3421 70.9763 14.5372L72.3842 10.6647L86.7584 16.0441C86.9011 16.0982 87.0566 16.1085 87.2051 16.0737C87.3537 16.039 87.4884 15.9607 87.5922 15.8489C87.696 15.7371 87.764 15.5968 87.7877 15.4461C87.8113 15.2954 87.7895 15.1411 87.7249 15.0029L85.5042 10.1881L90.2795 7.99153C90.4173 7.92748 90.5331 7.82402 90.6121 7.69422C90.6912 7.56441 90.73 7.41409 90.7236 7.26225C90.7173 7.1104 90.6661 6.96384 90.5765 6.84109C90.4869 6.71833 90.3629 6.62489 90.2202 6.57256L75.0684 1.04605C74.8764 0.976546 74.6647 0.986025 74.4798 1.07241C74.3878 1.11542 74.3054 1.17646 74.2375 1.25193C74.1695 1.3274 74.1175 1.41574 74.0844 1.51172L71.2069 9.41929L69.6012 13.8278C63.1013 10.607 55.9366 8.9556 48.6827 9.00616C41.4288 9.05672 34.2878 10.8078 27.8335 14.1189C21.3791 17.4299 15.7912 22.2086 11.5187 28.0709C7.24621 33.9333 4.40816 40.716 3.23255 47.8742C3.04483 49.0247 3.10988 50.2023 3.4232 51.3251C3.73652 52.4479 4.29059 53.489 5.0469 54.376C5.92402 55.4084 7.04423 56.2063 8.30658 56.6978V60.7021H7.70692C4.77233 60.7021 2.71417 61.651 1.58734 63.5246C0.653809 65.0776 0.653809 66.8832 0.653809 67.9617C0.653809 71.9286 2.75151 74.4788 6.34067 75.0126C6.23168 75.6556 6.17657 76.3065 6.17593 76.9587C6.15381 79.5967 7.12449 82.1465 8.89525 84.1019H7.68276C6.34199 84.1077 5.05803 84.6439 4.1114 85.5934C3.16477 86.543 2.63243 87.8285 2.6307 89.1693V90.8014C2.63419 93.5055 3.7101 96.0978 5.62242 98.0098C7.53474 99.9217 10.1273 100.997 12.8315 101H85.1769C87.8809 100.997 90.4732 99.9216 92.3852 98.0096C94.2972 96.0976 95.3726 93.5053 95.3755 90.8014V89.1693C95.3738 87.8259 94.8393 86.538 93.8894 85.588C92.9394 84.6381 91.6515 84.1036 90.3081 84.1019ZM75.2661 2.75716L87.9424 7.36991L84.1621 9.12715C84.0703 9.16947 83.9878 9.22949 83.9192 9.30375C83.8506 9.37802 83.7974 9.46508 83.7625 9.55995C83.7276 9.65482 83.7118 9.75564 83.7159 9.85664C83.72 9.95763 83.744 10.0568 83.7865 10.1485L85.5438 13.9617L72.9202 9.2216L75.2661 2.75716ZM93.6117 67.4828C93.6117 69.8156 92.2806 71.3839 91.0395 71.3839C90.819 71.3856 90.5987 71.3701 90.3806 71.3378C89.0921 68.9999 87.0371 67.1777 84.5619 66.1781C84.34 66.088 84.1028 66.0418 83.8634 66.0419C79.6658 66.0419 78.0535 67.7376 76.7598 69.0995C75.5451 70.3757 74.5852 71.3839 70.8291 71.3839C67.5628 71.3839 65.3839 70.5514 63.3235 69.5322L68.1559 64.4362H91.0395C93.2778 64.4362 93.6117 66.345 93.6117 67.4828ZM53.0942 66.6042L50.9547 64.4362H63.005L58.9194 68.7458L58.9062 68.7612L57.1051 70.6678L53.0942 66.6042ZM12.0451 57.2447H85.9545V60.7021H12.0451V57.2447ZM7.90241 51.9598C7.49601 51.4846 7.19788 50.9267 7.02872 50.3247C6.85955 49.7228 6.82339 49.0912 6.92275 48.4739C8.01095 41.8596 10.6427 35.5948 14.6046 30.1877C18.5665 24.7805 23.747 20.3833 29.726 17.3525C35.705 14.3217 42.3141 12.7428 49.0173 12.7436C55.7206 12.7445 62.3293 14.3253 68.3075 17.3576L65.1818 25.9461C65.1471 26.0409 65.1315 26.1415 65.1359 26.2423C65.1402 26.3431 65.1644 26.442 65.207 26.5334C65.2497 26.6248 65.31 26.707 65.3844 26.775C65.4588 26.8431 65.546 26.8958 65.6408 26.9302C65.7252 26.9614 65.8145 26.9771 65.9044 26.9763C66.0622 26.9764 66.2161 26.928 66.3454 26.8376C66.4747 26.7472 66.573 26.6193 66.6271 26.4711L69.6781 18.0847C75.2965 21.2172 80.1374 25.5746 83.8418 30.8335C87.5463 36.0924 90.0191 42.1178 91.0769 48.4629C91.1792 49.0813 91.1454 49.7146 90.9777 50.3186C90.81 50.9226 90.5125 51.4827 90.106 51.9598C89.6902 52.4494 89.1729 52.8427 88.5899 53.1124C88.0069 53.382 87.3722 53.5217 86.7299 53.5216H11.2697C10.6288 53.5208 9.99569 53.3808 9.41425 53.1111C8.83282 52.8415 8.31696 52.4486 7.90241 51.9598ZM4.38794 67.9726C4.38794 65.9255 4.38794 64.4472 7.70692 64.4472H45.7072L47.8444 66.6152C45.8192 67.1863 44.3299 68.1044 42.9681 68.9545C40.8616 70.2724 39.0429 71.3949 35.2516 71.3949C31.2978 71.3949 29.7273 70.1538 28.0689 68.8403C26.4501 67.5575 24.6159 66.1056 21.1103 66.1056C17.2004 66.1056 14.5206 67.9133 12.3658 69.3674C10.9732 70.3076 9.76728 71.1247 8.49328 71.3443C8.26918 71.3837 8.04208 71.4035 7.81455 71.4036C5.41153 71.3839 4.38794 70.3603 4.38794 67.9617V67.9726ZM9.91006 76.9785C9.90942 76.2268 10.0167 75.479 10.2286 74.7578C11.8013 74.2614 13.1478 73.3542 14.4569 72.4712C16.4558 71.1225 18.3448 69.8485 21.1124 69.8485C23.309 69.8485 24.3392 70.6568 25.7516 71.7749C27.6428 73.2729 29.9975 75.1378 35.2538 75.1378C40.1104 75.1378 42.6781 73.5409 44.9406 72.1329C46.7264 71.0236 48.2925 70.055 51.0228 69.8419L55.7959 74.6743C55.9677 74.85 56.1726 74.9898 56.3989 75.0856C56.6251 75.1814 56.8682 75.2312 57.1139 75.2322H57.1314C57.3822 75.2296 57.6299 75.1764 57.8597 75.0761C58.0895 74.9757 58.2967 74.8301 58.4691 74.6479L60.6283 72.3679C63.1983 73.7034 66.157 75.129 70.8137 75.129C76.1777 75.129 77.9942 73.218 79.4549 71.6848C80.4873 70.5997 81.1858 69.8661 83.4856 69.7936C85.2012 70.5839 86.5773 71.9623 87.3647 73.6793C87.8406 74.7122 88.085 75.8368 88.0808 76.9741C88.0808 79.0784 87.2329 80.3392 85.77 81.8065C85.0379 82.5419 84.1673 83.1249 83.2085 83.5219C82.2498 83.9189 81.2219 84.122 80.1842 84.1195H17.8022C13.229 84.1019 9.91006 81.097 9.91006 76.9587V76.9785ZM91.6414 90.8167C91.6396 92.5307 90.958 94.1739 89.7461 95.3858C88.5341 96.5978 86.8909 97.2794 85.1769 97.2812H12.8249C11.1092 97.2777 9.46511 96.5932 8.2538 95.3782C7.0425 94.1632 6.36308 92.517 6.36483 90.8014V89.1693C6.36481 88.8184 6.50317 88.4815 6.74989 88.2319C6.99662 87.9823 7.33182 87.8401 7.68276 87.836H90.3081C90.6617 87.836 91.0008 87.9765 91.2509 88.2265C91.5009 88.4766 91.6414 88.8157 91.6414 89.1693V90.8167Z" fill="white" stroke="white" stroke-width="0.1"/>
<path d="M17.1127 33.0695C17.038 32.9995 16.95 32.9451 16.8539 32.9096C16.7579 32.874 16.6557 32.8581 16.5534 32.8626C16.4511 32.8671 16.3507 32.892 16.2582 32.9358C16.1656 32.9796 16.0828 33.0415 16.0144 33.1178C13.6619 35.7053 10.3298 43.2966 9.4226 48.1707C9.38538 48.3711 9.42925 48.5781 9.54458 48.7462C9.65992 48.9142 9.83726 49.0296 10.0376 49.0669C10.0846 49.0767 10.1325 49.0812 10.1804 49.0801C10.3606 49.0797 10.5348 49.0158 10.6726 48.8997C10.8104 48.7837 10.9029 48.6228 10.9338 48.4453C11.7685 43.9621 15.026 36.4741 17.161 34.137C17.293 33.9875 17.3617 33.7926 17.3527 33.5935C17.3437 33.3943 17.2576 33.2064 17.1127 33.0695Z" fill="white" stroke="white" stroke-width="0.1"/>
<path d="M32.0141 94.239H13.0711C11.0173 94.239 9.53026 92.5038 9.53026 91.333C9.53026 91.1291 9.44926 90.9336 9.30508 90.7894C9.16091 90.6452 8.96536 90.5642 8.76147 90.5642C8.55757 90.5642 8.36203 90.6452 8.21785 90.7894C8.07367 90.9336 7.99268 91.1291 7.99268 91.333C7.99268 93.3868 10.2112 95.7766 13.0711 95.7766H32.0141C32.218 95.7766 32.4136 95.6956 32.5577 95.5514C32.7019 95.4073 32.7829 95.2117 32.7829 95.0078C32.7829 94.8039 32.7019 94.6084 32.5577 94.4642C32.4136 94.32 32.218 94.239 32.0141 94.239Z" fill="white" stroke="white" stroke-width="0.1"/>
</svg>
